<?xml version="1.0" encoding="UTF-8"?>
<svg version="1.1" xmlns="http://www.w3.org/2000/svg" width="512" height="512">
    <path d="M0 0 C0.33 0 0.66 0 1 0 C3.29597411 72.11059432 -30.72361545 145.46005554 -65.46240234 207.25732422 C-67.11013826 210.19645811 -68.73762459 213.14625734 -70.36328125 216.09765625 C-77.29639252 228.63987067 -84.51535178 240.96713624 -92.0390625 253.1640625 C-94.4438104 257.06550359 -96.75579759 261.00422497 -99 265 C-75.79910434 238.56737875 -50.95762888 206.99809334 -41.4375 172.5625 C-34.2451269 147.04860379 -9.82068589 130.0925026 11 116 C11.70705078 115.51998535 12.41410156 115.0399707 13.14257812 114.54541016 C31.16166322 102.39040174 50.93382566 90.39199722 73 88 C71.66666667 92 70.33333333 96 69 100 C74.445 99.01 74.445 99.01 80 98 C80 98.99 80 99.98 80 101 C83.96 99.35 87.92 97.7 92 96 C91.67 100.29 91.34 104.58 91 109 C92.65 108.34 94.3 107.68 96 107 C94.80100302 110.0831351 93.52299523 113.06279492 92 116 C92.66 116.99 93.32 117.98 94 119 C96.64 118.67 99.28 118.34 102 118 C98.7347993 124.12258743 95.16367328 129.87985723 91.1875 135.5625 C87.36283407 141.08007828 83.57515154 146.61665141 79.875 152.21875 C78.83049683 153.79934204 78.83049683 153.79934204 77.76489258 155.41186523 C76.41722336 157.45578006 75.07309207 159.50203372 73.7331543 161.55102539 C69.48045028 167.99018165 64.92415666 174.05867718 60 180 C62.63120352 180 64.24778531 179.0794965 66.64453125 177.98046875 C68.10234009 177.32075073 68.10234009 177.32075073 69.58959961 176.64770508 C70.65315674 176.1658374 71.71671387 175.68396973 72.8125 175.1875 C95.29626041 165.17276381 118.29010801 156.63609645 142 150 C143.07878418 149.69707031 144.15756836 149.39414063 145.26904297 149.08203125 C146.33396973 148.79714844 147.39889648 148.51226562 148.49609375 148.21875 C149.45572021 147.96029297 150.41534668 147.70183594 151.40405273 147.43554688 C154.01551455 146.99739698 155.52579894 147.13915458 158 148 C150.96561881 152.84523033 143.6845777 157.19184822 136.3125 161.5 C125.87378526 167.63350529 115.60176335 173.98117034 105.41796875 180.53125 C100.82436553 183.4844588 96.19390756 186.37369505 91.55126953 189.24902344 C80.74185332 195.94786739 70.06407204 202.82843186 59.4375 209.8125 C58.77671448 210.246763 58.11592896 210.681026 57.43511963 211.12844849 C53.5936768 213.65494463 49.75684024 216.18830562 45.92352295 218.72711182 C43.94414669 220.03696084 41.96253108 221.3433812 39.98095703 222.64990234 C33.50956194 226.92773859 27.13424818 231.24282794 21 236 C21.74233887 235.78384033 22.48467773 235.56768066 23.24951172 235.3449707 C36.80405522 231.42720191 50.31541782 227.70397988 64.1875 225.0625 C65.75056885 224.76436401 65.75056885 224.76436401 67.34521484 224.46020508 C77.11371186 222.67525587 86.63588362 221.83123828 96.5625 221.875 C97.44357422 221.87113281 98.32464844 221.86726562 99.23242188 221.86328125 C113.76947631 221.88473816 113.76947631 221.88473816 118 224 C116.33248852 227.94139078 113.77289351 230.7892812 111 234 C114.3 234.33 117.6 234.66 121 235 C121 235.66 121 236.32 121 237 C119.35 237.99 117.7 238.98 116 240 C121.28 240.33 126.56 240.66 132 241 C130.21739173 244.56521654 128.24007711 247.71455357 126 251 C127.98 251.33 129.96 251.66 132 252 C130.824375 252.804375 130.824375 252.804375 129.625 253.625 C126.66573701 256.30242842 125.95391744 258.18433025 125 262 C127.64 262 130.28 262 133 262 C128.62507227 266.78168754 123.5758194 270.27796877 118.25 273.9375 C117.3940625 274.53240234 116.538125 275.12730469 115.65625 275.74023438 C110.83981802 279.07889745 105.98282354 282.35066879 101.09960938 285.59057617 C99.14347638 286.90368731 97.21219536 288.24462971 95.2890625 289.60546875 C88.02325169 294.73959504 80.63557609 299.5353561 72.9375 304 C72.15262207 304.45656982 71.36774414 304.91313965 70.55908203 305.38354492 C66.1372205 307.91052571 61.72308007 310.09320539 57 312 C59.76728722 313.38364361 62.26471103 313.36424622 65.3515625 313.61328125 C66.66552002 313.72454346 67.97947754 313.83580566 69.33325195 313.95043945 C70.03277985 314.00898102 70.73230774 314.06752258 71.45303345 314.12783813 C98.63839513 316.43915347 125.93582447 320.73405803 152 329 C152 329.33 152 329.66 152 330 C151.3231868 330.01839432 150.6463736 330.03678864 149.9490509 330.05574036 C107.32419562 331.19980178 107.32419562 331.19980178 64.75 333.5 C63.41565414 333.58950424 63.41565414 333.58950424 62.05435181 333.68081665 C50.33056083 334.47846427 38.66866905 335.61564119 27 337 C27.5528215 337.13288925 28.10564301 337.2657785 28.67521667 337.4026947 C43.20832113 340.91003895 57.74548366 345.06441517 70 354 C70 354.66 70 355.32 70 356 C67.03 357.32 64.06 358.64 61 360 C63.31 361.32 65.62 362.64 68 364 C67.34 364.33 66.68 364.66 66 365 C66 365.66 66 366.32 66 367 C68.31 367.66 70.62 368.32 73 369 C71.86500606 372.29148243 71.00716624 372.9959869 67.875 374.75 C66.92625 375.1625 65.9775 375.575 65 376 C66.65 376.66 68.3 377.32 70 378 C70 378.33 70 378.66 70 379 C67.69 379.66 65.38 380.32 63 381 C63.19471111 382.94999129 63.19471111 382.94999129 64 385 C65.9837767 386.28436734 65.9837767 386.28436734 68 387 C64.94229954 389.03846698 63.22713184 389.51624386 59.6796875 390.18359375 C58.59945313 390.38758789 57.51921875 390.59158203 56.40625 390.80175781 C55.2409375 391.01155273 54.075625 391.22134766 52.875 391.4375 C51.67101562 391.65631836 50.46703125 391.87513672 49.2265625 392.10058594 C37.20298791 394.22923656 25.15420275 395.84055992 13 397 C12.13938965 397.08266113 11.2787793 397.16532227 10.39208984 397.25048828 C-11.83513378 399.24642014 -34.64732034 397.0537817 -54 385 C-56.2030357 383.11668917 -58.04698297 381.15332647 -60 379 C-63.46810294 377.84396569 -66.34186814 377.77151225 -70 377.6484375 C-70.69983505 377.62483154 -71.3996701 377.60122559 -72.12071228 377.5769043 C-74.41366133 377.50298347 -76.70672366 377.43790924 -79 377.375 C-79.78166534 377.35254211 -80.56333069 377.33008423 -81.36868286 377.3069458 C-99.97659476 376.79079276 -118.45328837 377.3418026 -137 379 C-137.02578125 379.86882812 -137.0515625 380.73765625 -137.078125 381.6328125 C-137.560301 391.42975208 -139.42761534 395.72146917 -146.625 402.375 C-150.71161049 406 -150.71161049 406 -153 406 C-153 406.66 -153 407.32 -153 408 C-152.4121875 408.25523437 -151.824375 408.51046875 -151.21875 408.7734375 C-148.77360357 410.12515577 -147.33732286 411.52878165 -145.5 413.625 C-144.9328125 414.25664062 -144.365625 414.88828125 -143.78125 415.5390625 C-138.50788298 422.82463536 -137.36161145 428.65280875 -137.5 437.625 C-137.47679687 439.1409375 -137.47679687 439.1409375 -137.453125 440.6875 C-137.49133641 447.96677288 -138.84315774 451.82528882 -144.0703125 457.08203125 C-144.74835938 457.65308594 -145.42640625 458.22414063 -146.125 458.8125 C-146.80820313 459.39644531 -147.49140625 459.98039062 -148.1953125 460.58203125 C-150 462 -150 462 -152 463 C-150.31146767 466.83454879 -148.04130215 468.98581045 -144.94921875 471.73046875 C-138.86718533 478.81195456 -137.27023738 484.83778649 -137.6875 494.0625 C-137.72133789 495.50399414 -137.72133789 495.50399414 -137.75585938 496.97460938 C-137.81415521 499.3181018 -137.89589741 501.65817223 -138 504 C-139.10664572 501.80509914 -140.17646234 499.61062573 -141.19140625 497.37109375 C-144.81535041 489.6172987 -149.09528711 483.20380783 -155 477 C-155.72703125 476.20207031 -156.4540625 475.40414063 -157.203125 474.58203125 C-159.81857279 472.21122568 -161.59209198 470.97049349 -165 470 C-169.41372816 470.71174724 -173.35103934 472.00387887 -177.546875 473.50390625 C-187.92733886 477.18693109 -201.34171317 479.04590953 -211.75 474.90625 C-214 473 -214 473 -214.76953125 469.63671875 C-214.88255272 459.2490181 -214.88255272 459.2490181 -212.41015625 455.75 C-206.28541227 451.04770136 -199.55229471 449.61029795 -191.9375 449.625 C-191.1952417 449.62443604 -190.4529834 449.62387207 -189.68823242 449.62329102 C-183.69223864 449.74108671 -178.48024159 450.96200864 -172.83203125 453.02734375 C-168.54102847 454.50108125 -165.47505047 455.48775002 -161.0703125 454.03125 C-150.37693143 448.52404969 -150.37693143 448.52404969 -142.61328125 439.61328125 C-141.72990994 436.96618618 -141.72990994 436.96618618 -143.01953125 434.421875 C-148.43659671 426.34938529 -155.26744951 416.20159673 -165 413 C-167.93838318 413.49430745 -169.9906777 414.04409276 -172.6875 415.125 C-174.11008974 415.62648612 -175.53459676 416.12256546 -176.9609375 416.61328125 C-177.6528418 416.85643066 -178.34474609 417.09958008 -179.05761719 417.35009766 C-185.13825265 419.38461897 -191.1597901 420.16485305 -197.54296875 419.76171875 C-208.15739016 418.957625 -208.15739016 418.957625 -217.45507812 423.42578125 C-219.77082003 425.5043865 -221.90998159 427.69589984 -224 430 C-226.12963457 432.22475472 -228.32391885 434.05887569 -230.8125 435.875 C-232.21886451 436.90240401 -233.61339367 437.94608206 -235 439 C-235.93972656 439.70511719 -236.87945312 440.41023438 -237.84765625 441.13671875 C-241.8417967 444.49584174 -244.63671861 448.69730822 -247.625 452.9375 C-253.00694556 460.42570691 -258.66598696 467.50229343 -264.76953125 474.41015625 C-266.98844354 476.7728705 -266.98844354 476.7728705 -268 479 C-268.61101562 479.13664062 -269.22203125 479.27328125 -269.8515625 479.4140625 C-272.57630344 480.15717367 -273.49206034 481.2875782 -275.375 483.375 C-285.17565783 493.54272367 -297.04444221 503.95057565 -311.75 504.3125 C-318.81035442 504.25222868 -323.29256068 502.43669539 -328.5 497.75 C-328.995 497.1725 -329.49 496.595 -330 496 C-328.6895622 492.06868661 -327.03931631 491.49602922 -323.5625 489.3125 C-296.97079807 472.04516109 -278.73148643 448.44027933 -262 422 C-265.35777733 422.63880365 -267.68283381 423.89953943 -270.52734375 425.7734375 C-271.39536621 426.34505615 -272.26338867 426.9166748 -273.15771484 427.50561523 C-274.07504395 428.12251221 -274.99237305 428.73940918 -275.9375 429.375 C-276.88318848 430.01058838 -277.82887695 430.64617676 -278.80322266 431.30102539 C-293.74157593 441.4714117 -307.37660386 453.69398848 -318.9375 467.625 C-323.25367981 472.66603443 -327.9955686 475.94329533 -334.625 477 C-338.79589931 477.25933053 -341.50128045 476.38936945 -345 474 C-347 471 -347 471 -346.9375 468.1875 C-344.98777367 461.55843049 -339.98691158 457.99986476 -334.66015625 454.015625 C-332.80303566 452.60846755 -330.97947069 451.15640018 -329.18359375 449.671875 C-312.52350658 435.923413 -293.46100417 425.1284725 -275 414 C-294.09647814 422.09456412 -312.32752176 431.70206821 -329.35546875 443.5859375 C-332 445 -332 445 -334.03515625 445.10546875 C-337.1280824 443.36531348 -339.09088146 440.68347198 -341.25 437.9375 C-341.70890625 437.36966797 -342.1678125 436.80183594 -342.640625 436.21679688 C-343.76900148 434.8180802 -344.8856663 433.40992986 -346 432 C-342.57422536 428.15041819 -338.65457753 425.80615369 -334.25 423.25 C-333.55261719 422.83878906 -332.85523438 422.42757813 -332.13671875 422.00390625 C-330.42765309 420.99719634 -328.71425404 419.99784936 -327 419 C-328.03060547 418.40251953 -328.03060547 418.40251953 -329.08203125 417.79296875 C-329.98308594 417.26316406 -330.88414062 416.73335938 -331.8125 416.1875 C-332.70582031 415.66542969 -333.59914063 415.14335937 -334.51953125 414.60546875 C-336.68381806 413.20464689 -338.36553823 411.98198853 -340 410 C-340 409.34 -340 408.68 -340 408 C-336.5742756 406.69968386 -333.1484333 405.39967873 -329.72253418 404.099823 C-327.78792279 403.3656734 -325.853433 402.631204 -323.91894531 401.89672852 C-315.73589946 398.79084271 -307.54825237 395.69749487 -299.35569763 392.61677551 C-295.4047161 391.12992478 -291.45621874 389.63699455 -287.51245117 388.13110352 C-286.73921005 387.8358931 -285.96596893 387.54068268 -285.16929626 387.23652649 C-283.63378052 386.65023131 -282.0983485 386.06371677 -280.56300354 385.47697449 C-275.84122351 383.67940048 -271.09930578 381.95765987 -266.3359375 380.2734375 C-264.09883204 379.45346948 -261.86184361 378.63318206 -259.625 377.8125 C-258.6340332 377.4817749 -257.64306641 377.1510498 -256.62207031 376.81030273 C-249.79341237 374.24504288 -247.11329409 370.93805379 -243.55078125 364.64086914 C-241.49636163 361.14234001 -239.24349326 358.96672631 -236.1875 356.3125 C-235.25292969 355.48363281 -234.31835938 354.65476562 -233.35546875 353.80078125 C-231 352 -231 352 -229 352 C-229.93968409 341.2307258 -230.87489591 332.18765614 -237 323 C-248.86829702 323.96268269 -260.82211105 325.2147407 -271 332 C-271.45212444 334.48219314 -271.7394523 336.80921191 -271.9375 339.3125 C-273.23153301 351.87239858 -276.67892827 362.99858983 -284.375 373.125 C-287 375 -287 375 -290.3125 375.0625 C-300.4364722 372.14542327 -300.4364722 372.14542327 -303.20703125 368.34375 C-306.19260162 361.69097219 -305.28641213 354.73695387 -302.97265625 348.015625 C-299.42912699 340.08633633 -293.00245079 331.00122539 -285 327 C-284.54627844 316.27872769 -284.94476722 306.62306229 -292 298 C-294.25278673 295.89286759 -296.58246207 293.915016 -299 292 C-298.34 291.67 -297.68 291.34 -297 291 C-294.31341636 292.10027676 -291.77637734 293.26460335 -289.1875 294.5625 C-288.47529297 294.89830078 -287.76308594 295.23410156 -287.02929688 295.58007812 C-279.54719078 299.29690604 -275.91874904 304.07768119 -273 312 C-272.27396272 314.32331929 -271.62449839 316.64612146 -271 319 C-270.21238281 318.71125 -269.42476563 318.4225 -268.61328125 318.125 C-253.41894068 312.94633718 -243.04500806 314.76463947 -228.76953125 321.53125 C-225.94476926 323.02929021 -224.12319396 324.63182212 -222 327 C-221.89187988 326.35109299 -221.78375977 325.70218597 -221.67236328 325.03361511 C-220.40990894 317.75176847 -218.72927666 310.63972183 -216.875 303.48828125 C-216.2487082 301.03857519 -215.62308495 298.58869813 -214.99804688 296.13867188 C-214.6718335 294.86306396 -214.34562012 293.58745605 -214.00952148 292.27319336 C-200.89998861 240.913931 -189.47853233 188.91383771 -185 136 C-184.90501221 135.04947754 -184.81002441 134.09895508 -184.7121582 133.11962891 C-183.56041662 120.15673201 -183.89261142 107.12574983 -183.9375 94.125 C-183.9425243 91.58724046 -183.94708557 89.04947997 -183.95117188 86.51171875 C-183.96210544 80.3411246 -183.97876999 74.17056687 -184 68 C-183.34 68 -182.68 68 -182 68 C-173.57066407 96.93495511 -168.6168138 126.13044259 -165 156 C-164.79697266 154.41251953 -164.79697266 154.41251953 -164.58984375 152.79296875 C-160.28016518 121.50126018 -151.71360778 85.19130161 -130 61 C-129.34 61 -128.68 61 -128 61 C-126.02 65.95 -126.02 65.95 -124 71 C-123.01 71 -122.02 71 -121 71 C-120.731875 70.236875 -120.46375 69.47375 -120.1875 68.6875 C-119.05575888 66.12619116 -118.08776599 64.80307062 -116 63 C-115.67 64.65 -115.34 66.3 -115 68 C-114.34 68 -113.68 68 -113 68 C-112.7525 67.13375 -112.505 66.2675 -112.25 65.375 C-110.93221387 61.81697746 -109.19813178 59.0773845 -107 56 C-104.59424393 58.18517099 -103.20464419 60.25919671 -101.8125 63.1875 C-101.46832031 63.90292969 -101.12414062 64.61835937 -100.76953125 65.35546875 C-100.51558594 65.89816406 -100.26164063 66.44085938 -100 67 C-99.34 65.35 -98.68 63.7 -98 62 C-97.34 62.33 -96.68 62.66 -96 63 C-95.26924352 65.3140622 -94.59861742 67.64828869 -94 70 C-89.99653977 70.44290923 -89.99653977 70.44290923 -87.75 68 C-87.1725 67.34 -86.595 66.68 -86 66 C-84.26120915 71.52933624 -83.31438155 76.95053725 -82.5625 82.69140625 C-82.43735016 83.62257767 -82.31220032 84.55374908 -82.18325806 85.51313782 C-81.78163456 88.52869297 -81.3898257 91.54539845 -81 94.5625 C-80.86615906 95.58579407 -80.73231812 96.60908813 -80.59442139 97.66339111 C-78.37064443 114.75564274 -76.75211185 131.77622303 -76 149 C-66.99374426 132.80354302 -58.47758679 116.3768729 -50.02662659 99.88690186 C-47.01185401 94.00986466 -43.94766334 88.15945365 -40.875 82.3125 C-28.89044493 59.43251911 -17.5319788 36.23108141 -6.58203125 12.83984375 C-6.20747803 12.0403833 -5.8329248 11.24092285 -5.44702148 10.41723633 C-4.75266807 8.93254396 -4.06062317 7.44676888 -3.37133789 5.9597168 C-1.10878165 1.10878165 -1.10878165 1.10878165 0 0 Z M-165 173 C-164.98952637 173.85190918 -164.97905273 174.70381836 -164.96826172 175.58154297 C-164.64083891 206.65355343 -166.02884333 237.08323871 -170.54492188 267.84570312 C-171.17053786 272.18205424 -171.7205409 276.5260149 -172.25 280.875 C-172.39953125 282.08929688 -172.5490625 283.30359375 -172.703125 284.5546875 C-172.80109375 285.36164063 -172.8990625 286.16859375 -173 287 C-169.78734971 282.18102457 -167.83577298 276.77378593 -165.625 271.4375 C-165.36454895 270.81050201 -165.1040979 270.18350403 -164.83575439 269.5375061 C-160.35329109 258.7031525 -156.27066154 247.74529204 -152.375 236.6875 C-151.98891571 235.59560867 -151.98891571 235.59560867 -151.59503174 234.48165894 C-147.83289011 223.8775245 -147.83289011 223.8775245 -145 213 C-145.98781172 210.9936974 -145.98781172 210.9936974 -147.9375 209.75 C-158.57445584 200.47407197 -162.25038388 186.53379526 -164 173 C-164.33 173 -164.66 173 -165 173 Z M-25.125 222.8125 C-26.06214844 223.62203125 -26.99929688 224.4315625 -27.96484375 225.265625 C-28.97885538 226.17453178 -29.99047081 227.08611711 -31 228 C-31.55187988 228.49693359 -32.10375977 228.99386719 -32.67236328 229.50585938 C-36.14350524 232.64031546 -39.58152885 235.80823374 -43 239 C-39.59343343 239 -38.69938421 238.3990612 -35.90234375 236.5859375 C-34.70605347 235.81878418 -34.70605347 235.81878418 -33.4855957 235.03613281 C-32.64472412 234.48795898 -31.80385254 233.93978516 -30.9375 233.375 C-29.22187842 232.27262119 -27.50573701 231.17105093 -25.7890625 230.0703125 C-24.96438477 229.53954102 -24.13970703 229.00876953 -23.29003906 228.46191406 C-19.24843033 225.88183377 -15.13663983 223.42456011 -11 221 C-16.59542273 217.26971818 -20.30185833 218.60146958 -25.125 222.8125 Z M-120.9831543 221.546875 C-123.88401547 223.63692774 -124.77931328 226.01723046 -126.26953125 229.25 C-126.55479172 229.86391602 -126.84005219 230.47783203 -127.13395691 231.11035156 C-127.73232749 232.40542035 -128.32451655 233.70336089 -128.91088867 235.00390625 C-129.81238606 236.99974774 -130.7355291 238.98444876 -131.66210938 240.96875 C-133.96301492 245.92846215 -133.96301492 245.92846215 -136 251 C-135.67 251.66 -135.34 252.32 -135 253 C-128.5415691 242.73931959 -122.19813399 232.42005135 -116 222 C-118.8171861 220.75146852 -118.8171861 220.75146852 -120.9831543 221.546875 Z M-137 253 C-136 255 -136 255 -136 255 Z M-138 255 C-138 258 -138 258 -138 258 Z M-140 258 C-139 260 -139 260 -139 260 Z M-30.88671875 270.88671875 C-31.66080078 271.49580078 -32.43488281 272.10488281 -33.23242188 272.73242188 C-34.04259766 273.37759766 -34.85277344 274.02277344 -35.6875 274.6875 C-41.04161487 278.92453793 -46.40584484 283.08334251 -52 287 C-50.0594079 288.25299294 -50.0594079 288.25299294 -48.07641602 287.44262695 C-45.56636904 286.41122008 -43.06040228 285.37305159 -40.5625 284.3125 C-39.69044922 283.95994141 -38.81839844 283.60738281 -37.91992188 283.24414062 C-37.08138672 282.89158203 -36.24285156 282.53902344 -35.37890625 282.17578125 C-34.6113501 281.85520752 -33.84379395 281.53463379 -33.05297852 281.2043457 C-28.80646616 278.71319985 -26.98822643 274.35516265 -25 270 C-25 269.34 -25 268.68 -25 268 C-27.77720764 268 -28.72247622 269.16944206 -30.88671875 270.88671875 Z M-30 306 C-40.59584426 310.57845122 -50.94649106 315.31603735 -61 321 C-57.96384578 322.51807711 -55.10531598 321.56455347 -51.8671875 321.0390625 C-51.1565213 320.929039 -50.4458551 320.8190155 -49.71365356 320.70565796 C-47.43312191 320.35141365 -45.15407332 319.98849777 -42.875 319.625 C-40.61710346 319.27042232 -38.35893482 318.91764583 -36.10061646 318.56576538 C-34.69558416 318.34623217 -33.29083792 318.12485686 -31.88644409 317.90127563 C-27.266255 317.17140492 -22.64297306 316.56088305 -18 316 C-18.721875 315.4225 -19.44375 314.845 -20.1875 314.25 C-21.115625 313.5075 -22.04375 312.765 -23 312 C-23.886875 311.29875 -24.77375 310.5975 -25.6875 309.875 C-28 308 -28 308 -30 306 Z M-155.125 379.8125 C-155.81464844 379.88275391 -156.50429687 379.95300781 -157.21484375 380.02539062 C-164.39289821 380.88318872 -168.37493784 384.167117 -173.8125 388.6875 C-175.27623047 389.89986328 -175.27623047 389.89986328 -176.76953125 391.13671875 C-177.50558594 391.75160156 -178.24164063 392.36648438 -179 393 C-175.64301156 396.35698844 -171.58231147 397.90394279 -167 399 C-158.3791779 398.37787882 -148.9222584 391.52891118 -143.375 385.25 C-141.60402408 383.05931302 -140.91625733 381.74877198 -140 379 C-145.11216333 378.91324005 -150.05042889 379.20335961 -155.125 379.8125 Z " fill="#549E87" transform="translate(350,4)"/>
    <path d="M0 0 C0.88107422 -0.00386719 1.76214844 -0.00773438 2.66992188 -0.01171875 C17.20697631 0.00973816 17.20697631 0.00973816 21.4375 2.125 C19.76998852 6.06639078 17.21039351 8.9142812 14.4375 12.125 C17.7375 12.455 21.0375 12.785 24.4375 13.125 C24.4375 13.785 24.4375 14.445 24.4375 15.125 C21.9625 16.61 21.9625 16.61 19.4375 18.125 C24.7175 18.455 29.9975 18.785 35.4375 19.125 C33.65489173 22.69021654 31.67757711 25.83955357 29.4375 29.125 C31.4175 29.455 33.3975 29.785 35.4375 30.125 C34.261875 30.929375 34.261875 30.929375 33.0625 31.75 C30.10323701 34.42742842 29.39141744 36.30933025 28.4375 40.125 C31.0775 40.125 33.7175 40.125 36.4375 40.125 C32.06257227 44.90668754 27.0133194 48.40296877 21.6875 52.0625 C20.8315625 52.65740234 19.975625 53.25230469 19.09375 53.86523438 C14.27731802 57.20389745 9.42032354 60.47566879 4.53710938 63.71557617 C2.58097638 65.02868731 0.64969536 66.36962971 -1.2734375 67.73046875 C-8.53924831 72.86459504 -15.92692391 77.6603561 -23.625 82.125 C-24.80231689 82.80985474 -24.80231689 82.80985474 -26.00341797 83.50854492 C-30.4252795 86.03552571 -34.83941993 88.21820539 -39.5625 90.125 C-36.79521278 91.50864361 -34.29778897 91.48924622 -31.2109375 91.73828125 C-29.89697998 91.84954346 -28.58302246 91.96080566 -27.22924805 92.07543945 C-26.17995621 92.1632518 -26.17995621 92.1632518 -25.10946655 92.25283813 C2.07589513 94.56415347 29.37332447 98.85905803 55.4375 107.125 C55.4375 107.455 55.4375 107.785 55.4375 108.125 C54.7606868 108.14339432 54.0838736 108.16178864 53.3865509 108.18074036 C10.76169562 109.32480178 10.76169562 109.32480178 -31.8125 111.625 C-32.7020639 111.68466949 -33.59162781 111.74433899 -34.50814819 111.80581665 C-46.23193917 112.60346427 -57.89383095 113.74064119 -69.5625 115.125 C-69.0096785 115.25788925 -68.45685699 115.3907785 -67.88728333 115.5276947 C-53.35417887 119.03503895 -38.81701634 123.18941517 -26.5625 132.125 C-26.5625 132.785 -26.5625 133.445 -26.5625 134.125 C-31.0175 136.105 -31.0175 136.105 -35.5625 138.125 C-33.2525 139.445 -30.9425 140.765 -28.5625 142.125 C-29.2225 142.455 -29.8825 142.785 -30.5625 143.125 C-30.5625 143.785 -30.5625 144.445 -30.5625 145.125 C-28.2525 145.785 -25.9425 146.445 -23.5625 147.125 C-24.69749394 150.41648243 -25.55533376 151.1209869 -28.6875 152.875 C-30.110625 153.49375 -30.110625 153.49375 -31.5625 154.125 C-29.9125 154.785 -28.2625 155.445 -26.5625 156.125 C-26.5625 156.455 -26.5625 156.785 -26.5625 157.125 C-30.0275 158.115 -30.0275 158.115 -33.5625 159.125 C-33.36778889 161.07499129 -33.36778889 161.07499129 -32.5625 163.125 C-30.5787233 164.40936734 -30.5787233 164.40936734 -28.5625 165.125 C-31.62020046 167.16346698 -33.33536816 167.64124386 -36.8828125 168.30859375 C-37.96304688 168.51258789 -39.04328125 168.71658203 -40.15625 168.92675781 C-41.3215625 169.13655273 -42.486875 169.34634766 -43.6875 169.5625 C-44.89148438 169.78131836 -46.09546875 170.00013672 -47.3359375 170.22558594 C-59.35951209 172.35423656 -71.40829725 173.96555992 -83.5625 175.125 C-84.42311035 175.20766113 -85.2837207 175.29032227 -86.17041016 175.37548828 C-108.45197806 177.37630008 -134.14434683 175.63113544 -152.64453125 161.5390625 C-157.72807051 156.82100645 -162.94413852 150.56779281 -163.921875 143.54296875 C-163.63572748 136.89003898 -160.62991211 133.18656403 -156.5625 128.125 C-161.34576239 128.38904992 -166.12887188 128.65568134 -170.91186523 128.92456055 C-172.53422283 129.01541515 -174.15661803 129.10560131 -175.77905273 129.19506836 C-188.04849981 129.86987292 -188.04849981 129.86987292 -200.2890625 130.9375 C-204.05246674 131.24788385 -207.78865191 131.18686636 -211.5625 131.125 C-206.85693385 127.02500249 -201.56067807 124.05953007 -196.1875 120.9375 C-194.20542414 119.77786496 -192.22365426 118.61770676 -190.2421875 117.45703125 C-189.2737793 116.89064941 -188.30537109 116.32426758 -187.30761719 115.74072266 C-184.90537025 114.32680677 -182.51509182 112.89643403 -180.1328125 111.44921875 C-179.15127197 110.85306763 -179.15127197 110.85306763 -178.14990234 110.24487305 C-176.44746306 109.20725825 -174.74707907 108.16627331 -173.046875 107.125 C-171.88814163 106.45360825 -170.72644084 105.7873229 -169.5625 105.125 C-168.85577148 104.70758545 -168.14904297 104.2901709 -167.42089844 103.86010742 C-160.31720372 99.94465656 -153.27609412 98.64574082 -145.3125 97.4375 C-144.09175781 97.23833984 -142.87101562 97.03917969 -141.61328125 96.83398438 C-133.27898389 95.48903163 -124.9228202 94.2956053 -116.5625 93.125 C-117.22282227 92.67044434 -117.88314453 92.21588867 -118.56347656 91.74755859 C-123.07798782 88.57862727 -126.65594575 85.90817038 -128.19921875 80.48046875 C-129.61242952 71.31739244 -128.72451155 62.80426628 -125.5625 54.125 C-125.13904297 52.91263672 -125.13904297 52.91263672 -124.70703125 51.67578125 C-117.33783719 34.14218159 -97.6755159 23.02228839 -80.90234375 16.1015625 C-55.72367702 6.39027516 -27.07138106 -0.11934481 0 0 Z " fill="#DE4565" transform="translate(446.5625,225.875)"/>
    <path d="M0 0 C-7.03438119 4.84523033 -14.3154223 9.19184822 -21.6875 13.5 C-32.12621474 19.63350529 -42.39823665 25.98117034 -52.58203125 32.53125 C-57.17563447 35.4844588 -61.80609244 38.37369505 -66.44873047 41.24902344 C-77.25814668 47.94786739 -87.93592796 54.82843186 -98.5625 61.8125 C-99.22328552 62.246763 -99.88407104 62.681026 -100.56488037 63.12844849 C-116.96463663 73.87137059 -116.96463663 73.87137059 -133.18359375 84.8828125 C-139.3591808 89.13825904 -145.48468779 92.87963546 -152.25 96.125 C-162.33383101 100.99388791 -170.21832347 107.03868658 -177.94482422 115.13989258 C-184.470696 121.78330078 -192.17076081 126.99704521 -199.76513672 132.33764648 C-202.59816024 134.44492823 -205.28755234 136.73962695 -208 139 C-201.4 136.36 -194.8 133.72 -188 131 C-188.33 133.64 -188.66 136.28 -189 139 C-189.10856018 141.20654867 -189.17406219 143.41582328 -189.1875 145.625 C-189.20167969 146.68976563 -189.21585938 147.75453125 -189.23046875 148.8515625 C-188.98613925 152.18935199 -188.18453192 154.88182507 -187 158 C-187.86238281 158.38929688 -188.72476563 158.77859375 -189.61328125 159.1796875 C-197.89858097 162.9619816 -205.99179004 167.02843975 -214.02758789 171.31494141 C-218.55890269 173.72927474 -223.11604397 176.03643355 -227.75 178.25 C-238.23656489 183.43783057 -248.06400099 189.8445185 -258 196 C-260.0352449 197.25229248 -262.07178741 198.50243656 -264.10888672 199.75170898 C-266.40819185 201.16413928 -268.70411868 202.5820128 -271 204 C-269.19082642 203.89949036 -267.38165283 203.79898071 -265.57247925 203.69847107 C-263.96353149 203.60908508 -262.35458374 203.5196991 -260.74563599 203.43031311 C-259.49144363 203.36063576 -259.49144363 203.36063576 -258.21191406 203.28955078 C-257.3494104 203.24163391 -256.48690674 203.19371704 -255.5982666 203.14434814 C-254.74083862 203.09671326 -253.88341064 203.04907837 -253 203 C-251.78346741 202.93241486 -251.78346741 202.93241486 -250.5423584 202.86346436 C-249.35301697 202.79738983 -249.35301697 202.79738983 -248.13964844 202.72998047 C-247.34983582 202.68610199 -246.56002319 202.64222351 -245.74627686 202.59701538 C-244.96117737 202.55339874 -244.17607788 202.5097821 -243.3671875 202.46484375 C-234.578125 201.9765625 -225.7890625 201.48828125 -217 201 C-217.41934814 201.59095459 -217.83869629 202.18190918 -218.27075195 202.79077148 C-218.81691162 203.58040283 -219.36307129 204.37003418 -219.92578125 205.18359375 C-220.74042847 206.34846313 -220.74042847 206.34846313 -221.5715332 207.53686523 C-223.89638891 211.54566189 -224.60354598 215.41452264 -224 220 C-222.91530538 222.37128495 -221.69430488 224.32473901 -220.12890625 226.40625 C-219 228 -219 228 -219 230 C-220.4691687 229.94670532 -220.4691687 229.94670532 -221.96801758 229.89233398 C-245.87946436 229.04492954 -269.5059637 228.86716522 -293.3828125 230.80322266 C-294.91893634 230.91871853 -296.45954041 231 -298 231 C-299.72533103 231.18278985 -301.44907963 231.38061966 -303.171875 231.5859375 C-304.22165527 231.7106543 -305.27143555 231.83537109 -306.35302734 231.96386719 C-310.90275996 232.51451759 -315.4508525 233.07821694 -319.99902344 233.64160156 C-322.36568327 233.92424528 -324.728657 234.1777311 -327.1015625 234.3984375 C-335.16278516 235.26420127 -342.21577729 237.67944685 -349.69482422 240.70019531 C-350.46971191 241.00924805 -351.24459961 241.31830078 -352.04296875 241.63671875 C-353.07973755 242.06537231 -353.07973755 242.06537231 -354.13745117 242.50268555 C-356 243 -356 243 -359 242 C-360.39453125 239.7421875 -360.39453125 239.7421875 -361.8125 236.875 C-365.50605986 229.83529432 -369.03475458 224.94658088 -376 221 C-376.35209855 216.43626108 -376.30716886 212.40972628 -375 208 C-371.44320595 204.78509003 -367.5233542 203.44663472 -363 202 C-362.04222656 201.66484375 -361.08445312 201.3296875 -360.09765625 200.984375 C-351.79934436 198.48008335 -343.56967888 198.70636887 -335 199 C-335 198.34 -335 197.68 -335 197 C-333.60839844 195.97290039 -333.60839844 195.97290039 -331.609375 194.84765625 C-330.47254272 194.19265137 -330.47254272 194.19265137 -329.31274414 193.52441406 C-328.46703857 193.04198242 -327.62133301 192.55955078 -326.75 192.0625 C-290.8476528 171.01867009 -257.88445349 145.3648825 -228.71875 115.6875 C-226.28071491 113.29379282 -223.69240495 111.09084158 -221.09423828 108.8737793 C-219.09942315 107.08895694 -217.29315665 105.21890696 -215.4609375 103.26953125 C-210.67722592 98.46261922 -205.29904206 94.86353125 -199.625 91.1875 C-198.57078857 90.49825439 -197.51657715 89.80900879 -196.43041992 89.09887695 C-194.29779062 87.71023694 -192.16168162 86.32692496 -190.02197266 84.94921875 C-187.29800864 83.19222015 -184.59148447 81.41131832 -181.88671875 79.625 C-174.48147716 74.8182518 -168.10267505 71.16979988 -159.27734375 69.65625 C-138.91804635 65.57953729 -121.65528399 53.75171504 -106.984375 39.578125 C-100.34128737 33.83933202 -92.81854937 30.35126903 -84.8125 26.875 C-83.73025146 26.40344482 -82.64800293 25.93188965 -81.53295898 25.44604492 C-60.17484126 16.25427137 -38.39771583 8.26883507 -16 2 C-14.38182373 1.54560547 -14.38182373 1.54560547 -12.73095703 1.08203125 C-11.66603027 0.79714844 -10.60110352 0.51226562 -9.50390625 0.21875 C-8.54427979 -0.03970703 -7.58465332 -0.29816406 -6.59594727 -0.56445312 C-3.98448545 -1.00260302 -2.47420106 -0.86084542 0 0 Z " fill="#549E87" transform="translate(508,152)"/>
    <path d="M0 0 C2.40575607 2.18517099 3.79535581 4.25919671 5.1875 7.1875 C5.53167969 7.90292969 5.87585938 8.61835937 6.23046875 9.35546875 C6.48441406 9.89816406 6.73835938 10.44085938 7 11 C7.66 9.35 8.32 7.7 9 6 C9.99 6.495 9.99 6.495 11 7 C11.73075648 9.3140622 12.40138258 11.64828869 13 14 C17.00346023 14.44290923 17.00346023 14.44290923 19.25 12 C20.11625 11.01 20.11625 11.01 21 10 C22.82734025 15.74096356 23.72112598 21.38992868 24.47265625 27.359375 C24.60063095 28.34440002 24.72860565 29.32942505 24.86045837 30.34429932 C25.12929901 32.42159126 25.3955723 34.4992169 25.65942383 36.57714844 C26.05953717 39.72667778 26.46753216 42.87510598 26.87695312 46.0234375 C27.13848668 48.05202333 27.39956887 50.08066741 27.66015625 52.109375 C27.77996353 53.03683533 27.89977081 53.96429565 28.02320862 54.91986084 C31.96269849 86.04670303 31.77528686 117.81426716 14 145 C9.80745223 150.32547376 5.34400911 154.83979038 0 159 C-0.65742188 159.55042969 -1.31484375 160.10085937 -1.9921875 160.66796875 C-7.11553903 164.8027898 -10.67557704 166.21904757 -17.390625 165.87890625 C-28.55438141 164.55688246 -39.31698953 158.20934067 -46.32421875 149.4765625 C-59.13716979 130.54087261 -60.09756173 108.2010804 -56.1015625 86.33984375 C-50.50579715 58.21657565 -42.67397529 26.91893097 -23 5 C-22.34 5 -21.68 5 -21 5 C-19.68 8.3 -18.36 11.6 -17 15 C-16.01 15 -15.02 15 -14 15 C-13.731875 14.236875 -13.46375 13.47375 -13.1875 12.6875 C-12.05575888 10.12619116 -11.08776599 8.80307062 -9 7 C-8.505 9.475 -8.505 9.475 -8 12 C-7.34 12 -6.68 12 -6 12 C-5.7525 11.13375 -5.505 10.2675 -5.25 9.375 C-3.93221387 5.81697746 -2.19813178 3.0773845 0 0 Z " fill="#DE4565" transform="translate(243,60)"/>
    <path d="M0 0 C0.495 0.99 0.495 0.99 1 2 C0.07645234 4.13126384 -1.05482031 6.09809949 -2.1875 8.125 C-2.455625 8.74375 -2.72375 9.3625 -3 10 C-2.505 10.99 -2.505 10.99 -2 12 C1.3 11.34 4.6 10.68 8 10 C8 10.99 8 11.98 8 13 C11.96 11.35 15.92 9.7 20 8 C19.67 12.29 19.34 16.58 19 21 C21.475 20.01 21.475 20.01 24 19 C22.80100302 22.0831351 21.52299523 25.06279492 20 28 C20.99 29.485 20.99 29.485 22 31 C24.64 30.67 27.28 30.34 30 30 C26.7347993 36.12258743 23.16367328 41.87985723 19.1875 47.5625 C15.36283407 53.08007828 11.57515154 58.61665141 7.875 64.21875 C7.17866455 65.27247803 6.4823291 66.32620605 5.76489258 67.41186523 C4.41722336 69.45578006 3.07309207 71.50203372 1.7331543 73.55102539 C-3.81614105 81.9533924 -9.68305916 90.03998311 -17 97 C-17.91458984 97.96292969 -17.91458984 97.96292969 -18.84765625 98.9453125 C-35.40909503 116.1980636 -56.93544237 129.26660927 -81 132 C-84.7661528 132.02874926 -88.29567599 131.65028886 -92 131 C-93.20269531 130.8453125 -93.20269531 130.8453125 -94.4296875 130.6875 C-100.28114878 129.74180929 -104.21257477 127.59969099 -108 123 C-115.12766149 111.52389782 -116.75340331 98.88495828 -114.41796875 85.71875 C-106.79065279 59.80677251 -82.21193873 42.35732249 -61 28 C-60.29294922 27.51998535 -59.58589844 27.0399707 -58.85742188 26.54541016 C-41.08549819 14.55712769 -21.67382944 2.83781728 0 0 Z " fill="#DE4565" transform="translate(422,92)"/>
    <path d="M0 0 C1 2 1 2 0.5625 4.0625 C-0.51230634 9.67537756 -0.43141088 15.45328283 1 21 C1.86625 21.268125 2.7325 21.53625 3.625 21.8125 C7 23 7 23 10.125 24.6875 C12.78596788 26.14275675 12.78596788 26.14275675 15.0625 26 C20.16477981 23.36656526 22.74326138 19.10735582 25 14 C29.88556936 18.32448156 30.71235997 24.22875841 31.36328125 30.5 C31.71016532 40.01453458 30.60170384 50.72760248 24.0703125 58.2109375 C22.13863484 59.88019857 20.1915902 61.43942959 18.125 62.9375 C16.73965934 63.94425566 15.36592222 64.9670517 14 66 C13.0615625 66.70382812 12.123125 67.40765625 11.15625 68.1328125 C7.16080699 71.49372945 4.3645444 75.69551608 1.375 79.9375 C-4.00694556 87.42570691 -9.66598696 94.50229343 -15.76953125 101.41015625 C-17.98844354 103.7728705 -17.98844354 103.7728705 -19 106 C-19.61101562 106.13664062 -20.22203125 106.27328125 -20.8515625 106.4140625 C-23.57630344 107.15717367 -24.49206034 108.2875782 -26.375 110.375 C-36.17565783 120.54272367 -48.04444221 130.95057565 -62.75 131.3125 C-69.81035442 131.25222868 -74.29256068 129.43669539 -79.5 124.75 C-79.995 124.1725 -80.49 123.595 -81 123 C-79.6895622 119.06868661 -78.03931631 118.49602922 -74.5625 116.3125 C-47.97079807 99.04516109 -29.73148643 75.44027933 -13 49 C-16.35777733 49.63880365 -18.68283381 50.89953943 -21.52734375 52.7734375 C-22.39536621 53.34505615 -23.26338867 53.9166748 -24.15771484 54.50561523 C-25.5337085 55.43096069 -25.5337085 55.43096069 -26.9375 56.375 C-27.88318848 57.01058838 -28.82887695 57.64617676 -29.80322266 58.30102539 C-44.74157593 68.4714117 -58.37660386 80.69398848 -69.9375 94.625 C-74.25367981 99.66603443 -78.9955686 102.94329533 -85.625 104 C-89.79589931 104.25933053 -92.50128045 103.38936945 -96 101 C-98 98 -98 98 -97.9375 95.1875 C-95.98777367 88.55843049 -90.98691158 84.99986476 -85.66015625 81.015625 C-83.80303566 79.60846755 -81.97947069 78.15640018 -80.18359375 76.671875 C-63.52350658 62.923413 -44.46100417 52.1284725 -26 41 C-45.09647814 49.09456412 -63.32752176 58.70206821 -80.35546875 70.5859375 C-83 72 -83 72 -85.03515625 72.10546875 C-88.1280824 70.36531348 -90.09088146 67.68347198 -92.25 64.9375 C-92.70890625 64.36966797 -93.1678125 63.80183594 -93.640625 63.21679688 C-94.76900148 61.8180802 -95.8856663 60.40992986 -97 59 C-93.57422536 55.15041819 -89.65457753 52.80615369 -85.25 50.25 C-84.20392578 49.63318359 -84.20392578 49.63318359 -83.13671875 49.00390625 C-81.42765309 47.99719634 -79.71425404 46.99784936 -78 46 C-78.68707031 45.60167969 -79.37414062 45.20335937 -80.08203125 44.79296875 C-80.98308594 44.26316406 -81.88414063 43.73335938 -82.8125 43.1875 C-83.70582031 42.66542969 -84.59914063 42.14335937 -85.51953125 41.60546875 C-87.68381806 40.20464689 -89.36553823 38.98198853 -91 37 C-91 36.34 -91 35.68 -91 35 C-87.5742756 33.69968386 -84.1484333 32.39967873 -80.72253418 31.099823 C-78.78792279 30.3656734 -76.853433 29.631204 -74.91894531 28.89672852 C-67.52137575 26.08897127 -60.12043832 23.29043148 -52.71484375 20.50390625 C-35.06387263 13.85786006 -17.46783424 7.1169875 0 0 Z " fill="#92CEBD" transform="translate(101,377)"/>
    <path d="M0 0 C8.78874151 2.77677079 17.90790573 5.95120583 23 14 C25.23579618 18.55439962 26.70475127 23.11790865 28 28 C28.78761719 27.71125 29.57523438 27.4225 30.38671875 27.125 C43.975819 22.49344867 53.98091262 22.92670694 67 29 C68.57394531 29.68835938 68.57394531 29.68835938 70.1796875 30.390625 C75.75529881 33.57227577 78.17331631 39.36513926 80.04296875 45.32421875 C80.76955364 48.20667992 81.42865972 51.08315749 82 54 C82.89525391 53.566875 82.89525391 53.566875 83.80859375 53.125 C93.33937677 49.04644798 104.29060509 47.78735294 114.203125 51.3515625 C117.56352338 52.7179833 120.79746962 54.29469064 124 56 C120.46115953 57.17961349 117.79016081 56.99040746 114.0625 56.875 C106.94732734 56.78318578 100.7486536 57.76577272 94 60 C92.97132813 60.28230469 91.94265625 60.56460938 90.8828125 60.85546875 C87.72067747 61.92730933 85.52923741 62.80921389 83 65 C81.48183855 69.32334559 81.08686819 73.43607917 81 78 C81.75410156 78.25910156 82.50820312 78.51820313 83.28515625 78.78515625 C91.26067125 82.35405577 95.27639092 91.58006103 99 99 C104.18105005 97.51648892 109.238714 95.92563278 114.25 93.9375 C120.66559491 91.53510363 127.22096357 90.75212667 134 90 C131.371485 93.49061969 128.74312262 96.19265804 125.25 98.8125 C124.45078125 99.41707031 123.6515625 100.02164063 122.828125 100.64453125 C122.22484375 101.09183594 121.6215625 101.53914063 121 102 C127.29466889 105.74242629 127.29466889 105.74242629 134.34765625 106.91015625 C136.75886382 106.17060257 138.78825683 105.21552944 141 104 C141.92167969 103.50628906 142.84335938 103.01257813 143.79296875 102.50390625 C151.48048532 98.0117407 157.28179133 92.69826774 160 84 C160.33 84 160.66 84 161 84 C161.10861833 86.70942393 161.18758577 89.414439 161.25 92.125 C161.28351563 92.88554687 161.31703125 93.64609375 161.3515625 94.4296875 C161.4443954 99.81399591 160.56652256 102.73488024 157 107 C154.7109375 109.3359375 154.7109375 109.3359375 152.375 111.375 C151.59898437 112.06335938 150.82296875 112.75171875 150.0234375 113.4609375 C148 115 148 115 146 115 C146 115.66 146 116.32 146 117 C146.5878125 117.25523437 147.175625 117.51046875 147.78125 117.7734375 C150.22639643 119.12515577 151.66267714 120.52878165 153.5 122.625 C154.0671875 123.25664062 154.634375 123.88828125 155.21875 124.5390625 C160.49211702 131.82463536 161.63838855 137.65280875 161.5 146.625 C161.52320313 148.1409375 161.52320313 148.1409375 161.546875 149.6875 C161.50866359 156.96677288 160.15684226 160.82528882 154.9296875 166.08203125 C154.25164062 166.65308594 153.57359375 167.22414063 152.875 167.8125 C152.19179687 168.39644531 151.50859375 168.98039063 150.8046875 169.58203125 C149 171 149 171 147 172 C148.68853233 175.83454879 150.95869785 177.98581045 154.05078125 180.73046875 C160.13281467 187.81195456 161.72976262 193.83778649 161.3125 203.0625 C161.27866211 204.50399414 161.27866211 204.50399414 161.24414062 205.97460938 C161.18584479 208.3181018 161.10410259 210.65817223 161 213 C159.89335428 210.80509914 158.82353766 208.61062573 157.80859375 206.37109375 C154.18464959 198.6172987 149.90471289 192.20380783 144 186 C143.27296875 185.20207031 142.5459375 184.40414062 141.796875 183.58203125 C139.18142721 181.21122568 137.40790802 179.97049349 134 179 C129.58627184 179.71174724 125.64896066 181.00387887 121.453125 182.50390625 C111.07266114 186.18693109 97.65828683 188.04590953 87.25 183.90625 C85 182 85 182 84.23046875 178.63671875 C84.11744728 168.2490181 84.11744728 168.2490181 86.58984375 164.75 C92.71458773 160.04770136 99.44770529 158.61029795 107.0625 158.625 C107.8047583 158.62443604 108.5470166 158.62387207 109.31176758 158.62329102 C115.30776136 158.74108671 120.51975841 159.96200864 126.16796875 162.02734375 C130.45897153 163.50108125 133.52494953 164.48775002 137.9296875 163.03125 C148.62306857 157.52404969 148.62306857 157.52404969 156.38671875 148.61328125 C157.27009006 145.96618618 157.27009006 145.96618618 155.98046875 143.421875 C150.56340329 135.34938529 143.73255049 125.20159673 134 122 C131.06161682 122.49430745 129.0093223 123.04409276 126.3125 124.125 C124.88991026 124.62648612 123.46540324 125.12256546 122.0390625 125.61328125 C121.3471582 125.85643066 120.65525391 126.09958008 119.94238281 126.35009766 C113.84353492 128.39071267 107.78995727 129.12892164 101.38671875 128.83203125 C90.38507444 128.08064073 90.38507444 128.08064073 80.8125 133 C78.5948625 135.11625969 78.5948625 135.11625969 77 137 C76.67 136.34 76.34 135.68 76 135 C76.59332185 133.41681456 77.25147984 131.85777774 77.9375 130.3125 C81.80237619 120.08668175 81.08759385 109.06014031 77 99 C76.67 98.34 76.34 97.68 76 97 C75.29423828 98.04800781 75.29423828 98.04800781 74.57421875 99.1171875 C73.95160156 100.02726562 73.32898438 100.93734375 72.6875 101.875 C72.07261719 102.77992188 71.45773438 103.68484375 70.82421875 104.6171875 C69 107 69 107 66 109 C62.27878243 108.63095363 59.1678847 107.35408709 55.8125 105.75 C54.95269531 105.35296875 54.09289062 104.9559375 53.20703125 104.546875 C50.45825027 102.62029577 49.88861496 101.20191151 49 98 C47.66800991 88.67606939 50.76086178 79.80001236 56.11328125 72.25 C59.63184292 68.0539513 63.64266198 64.31502515 68 61 C68.66 61 69.32 61 70 61 C69.06031591 50.2307258 68.12510409 41.18765614 62 32 C50.13170298 32.96268269 38.17788895 34.2147407 28 41 C27.54787556 43.48219314 27.2605477 45.80921191 27.0625 48.3125 C25.76846699 60.87239858 22.32107173 71.99858983 14.625 82.125 C12 84 12 84 8.6875 84.0625 C-1.4364722 81.14542327 -1.4364722 81.14542327 -4.20703125 77.34375 C-7.19260162 70.69097219 -6.28641213 63.73695387 -3.97265625 57.015625 C-0.42912699 49.08633633 5.99754921 40.00122539 14 36 C14.45372156 25.27872769 14.05523278 15.62306229 7 7 C5.17740312 5.33059553 3.32015059 3.74364994 1.390625 2.19921875 C0.93171875 1.80347656 0.4728125 1.40773438 0 1 C0 0.67 0 0.34 0 0 Z " fill="#DE4565" transform="translate(51,295)"/>
    <path d="M0 0 C1.13486037 3.40458111 0.72611715 4.56699715 0 8 C-0.11536492 10.14364127 -0.17485744 12.29079389 -0.1875 14.4375 C-0.20167969 15.52933594 -0.21585938 16.62117188 -0.23046875 17.74609375 C0.00944522 21.13335377 0.79360812 23.83858571 2 27 C1.13761719 27.38929688 0.27523437 27.77859375 -0.61328125 28.1796875 C-8.89858097 31.9619816 -16.99179004 36.02843975 -25.02758789 40.31494141 C-29.55890269 42.72927474 -34.11604397 45.03643355 -38.75 47.25 C-49.23656489 52.43783057 -59.06400099 58.8445185 -69 65 C-71.0352449 66.25229248 -73.07178741 67.50243656 -75.10888672 68.75170898 C-77.40819185 70.16413928 -79.70411868 71.5820128 -82 73 C-80.19082642 72.89949036 -78.38165283 72.79898071 -76.57247925 72.69847107 C-74.96353149 72.60908508 -73.35458374 72.5196991 -71.74563599 72.43031311 C-70.49144363 72.36063576 -70.49144363 72.36063576 -69.21191406 72.28955078 C-68.3494104 72.24163391 -67.48690674 72.19371704 -66.5982666 72.14434814 C-65.31212463 72.07289581 -65.31212463 72.07289581 -64 72 C-62.78346741 71.93241486 -62.78346741 71.93241486 -61.5423584 71.86346436 C-60.35301697 71.79738983 -60.35301697 71.79738983 -59.13964844 71.72998047 C-58.34983582 71.68610199 -57.56002319 71.64222351 -56.74627686 71.59701538 C-55.96117737 71.55339874 -55.17607788 71.5097821 -54.3671875 71.46484375 C-45.578125 70.9765625 -36.7890625 70.48828125 -28 70 C-28.62902222 70.88643188 -28.62902222 70.88643188 -29.27075195 71.79077148 C-29.81691162 72.58040283 -30.36307129 73.37003418 -30.92578125 74.18359375 C-31.74042847 75.34846313 -31.74042847 75.34846313 -32.5715332 76.53686523 C-34.89638891 80.54566189 -35.60354598 84.41452264 -35 89 C-33.91530538 91.37128495 -32.69430488 93.32473901 -31.12890625 95.40625 C-30 97 -30 97 -30 99 C-30.9794458 98.96447021 -31.9588916 98.92894043 -32.96801758 98.89233398 C-56.87946436 98.04492954 -80.5059637 97.86716522 -104.3828125 99.80322266 C-105.91893634 99.91871853 -107.45954041 100 -109 100 C-110.72533103 100.18278985 -112.44907963 100.38061966 -114.171875 100.5859375 C-115.22165527 100.7106543 -116.27143555 100.83537109 -117.35302734 100.96386719 C-121.90275996 101.51451759 -126.4508525 102.07821694 -130.99902344 102.64160156 C-133.36568327 102.92424528 -135.728657 103.1777311 -138.1015625 103.3984375 C-146.16278516 104.26420127 -153.21577729 106.67944685 -160.69482422 109.70019531 C-161.46971191 110.00924805 -162.24459961 110.31830078 -163.04296875 110.63671875 C-164.07973755 111.06537231 -164.07973755 111.06537231 -165.13745117 111.50268555 C-167 112 -167 112 -170 111 C-171.39453125 108.7421875 -171.39453125 108.7421875 -172.8125 105.875 C-176.50605986 98.83529432 -180.03475458 93.94658088 -187 90 C-187.35220628 85.43486479 -187.33051851 81.4053782 -186 77 C-182.38426462 73.91132323 -178.481103 72.47847857 -174 71 C-172.783125 70.54625 -171.56625 70.0925 -170.3125 69.625 C-166.16301154 68.84207765 -162.20753368 68.82826393 -158 69 C-162 76 -166 83 -170 90 C-163.50433951 87.80977729 -157.96843564 84.80773258 -152.125 81.25 C-150.16610152 80.07559285 -148.20643368 78.90246823 -146.24609375 77.73046875 C-145.22499512 77.11864746 -144.20389648 76.50682617 -143.15185547 75.87646484 C-127.2860093 66.43069461 -111.18774821 57.37685013 -95.05859375 48.390625 C-91.16149764 46.21682739 -87.27883624 44.02083599 -83.41015625 41.796875 C-68.61751437 33.30717352 -53.54474181 25.43552438 -38.34619141 17.70458984 C-35.60488863 16.30813749 -32.86912747 14.90200836 -30.13671875 13.48828125 C-20.31643175 8.44274668 -10.21546917 4.17501783 0 0 Z " fill="#91CDBD" transform="translate(319,283)"/>
    <path d="M0 0 C0.97453125 0.53367187 1.9490625 1.06734375 2.953125 1.6171875 C3.96632813 2.30167969 3.96632813 2.30167969 5 3 C5 3.66 5 4.32 5 5 C2.03 6.32 -0.94 7.64 -4 9 C-1.69 10.32 0.62 11.64 3 13 C2.34 13.33 1.68 13.66 1 14 C1 14.66 1 15.32 1 16 C3.31 16.66 5.62 17.32 8 18 C6.86500606 21.29148243 6.00716624 21.9959869 2.875 23.75 C1.92625 24.1625 0.9775 24.575 0 25 C1.65 25.66 3.3 26.32 5 27 C5 27.33 5 27.66 5 28 C2.69 28.66 0.38 29.32 -2 30 C-1.80528889 31.94999129 -1.80528889 31.94999129 -1 34 C0.9837767 35.28436734 0.9837767 35.28436734 3 36 C-0.05770046 38.03846698 -1.77286816 38.51624386 -5.3203125 39.18359375 C-6.94066406 39.48958496 -6.94066406 39.48958496 -8.59375 39.80175781 C-9.7590625 40.01155273 -10.924375 40.22134766 -12.125 40.4375 C-13.32898438 40.65631836 -14.53296875 40.87513672 -15.7734375 41.10058594 C-27.79701209 43.22923656 -39.84579725 44.84055992 -52 46 C-52.86061035 46.08266113 -53.7212207 46.16532227 -54.60791016 46.25048828 C-76.88947806 48.25130008 -102.58184683 46.50613544 -121.08203125 32.4140625 C-126.16557051 27.69600645 -131.38163852 21.44279281 -132.359375 14.41796875 C-132.07578968 7.82460998 -129.37500712 3.74124074 -125 -1 C-124.47148437 -1.60714844 -123.94296875 -2.21429688 -123.3984375 -2.83984375 C-95.45938765 -33.09611337 -31.21809941 -17.19153401 0 0 Z " fill="#DE4665" transform="translate(415,355)"/>
    <path d="M0 0 C0.66 0 1.32 0 2 0 C20.85346851 64.71734775 24.80500609 133.12690723 14.50146484 199.71435547 C14.04530009 202.70318957 13.63746903 205.69456665 13.23828125 208.69140625 C10.21989262 229.31960907 -0.1808165 248.38780324 -11 266 C-11.5882959 266.98033203 -11.5882959 266.98033203 -12.18847656 267.98046875 C-14.23627225 271.15251243 -15.4164871 272.74083336 -18.9375 274.3046875 C-19.948125 274.49289062 -20.95875 274.68109375 -22 274.875 C-23.5159375 275.18050781 -23.5159375 275.18050781 -25.0625 275.4921875 C-26.031875 275.65976562 -27.00125 275.82734375 -28 276 C-29.66718736 276.33071923 -31.33404379 276.66313385 -33 277 C-34.33333333 273 -35.66666667 269 -37 265 C-37.3911499 264.11779785 -37.7822998 263.2355957 -38.18530273 262.32666016 C-39.24605955 257.995263 -38.31371714 254.73028247 -37.10546875 250.5625 C-36.88299973 249.74279221 -36.6605307 248.92308441 -36.43132019 248.07853699 C-35.94954118 246.30866907 -35.46042839 244.54078453 -34.96478271 242.77474976 C-33.63358238 238.02262067 -32.36302461 233.25413796 -31.08203125 228.48828125 C-30.81942505 227.51740067 -30.55681885 226.54652008 -30.28625488 225.54621887 C-16.4055628 174.11339334 -5.63301355 121.11222306 -1 68 C-0.90356201 67.04077637 -0.80712402 66.08155273 -0.70776367 65.09326172 C0.44220373 52.13972197 0.10735578 39.11624878 0.0625 26.125 C0.0574757 23.58724046 0.05291443 21.04947997 0.04882812 18.51171875 C0.03789456 12.3411246 0.02123001 6.17056687 0 0 Z " fill="#549E87" transform="translate(166,72)"/>
    <path d="M0 0 C0.66 0 1.32 0 2 0 C3.32 3.3 4.64 6.6 6 10 C6.99 10 7.98 10 9 10 C9.268125 9.236875 9.53625 8.47375 9.8125 7.6875 C10.94424112 5.12619116 11.91223401 3.80307062 14 2 C16.07480021 6.14960042 16.02385379 8.51710706 15 13 C14.13455101 15.13167294 13.19130655 17.23267619 12.19140625 19.3046875 C11.90905624 19.89700165 11.62670624 20.4893158 11.33580017 21.09957886 C10.73083161 22.36851112 10.12288202 23.63602576 9.51220703 24.90222168 C7.89522501 28.26109654 6.30821788 31.6340163 4.72265625 35.0078125 C4.2443486 36.02512451 4.2443486 36.02512451 3.75637817 37.06298828 C-10.04811024 66.54893972 -26.41056602 102.05491681 -15.74951172 134.93115234 C-14.40468583 138.64322224 -12.79226813 142.20308119 -11.0625 145.75 C-10.73894531 146.41765381 -10.41539062 147.08530762 -10.08203125 147.77319336 C-7.97887998 151.82979242 -5.90588938 154.59591915 -2 157 C4.66988037 158.48561084 10.7365181 156.9772612 16.5859375 153.671875 C29.66958195 144.61071024 35.15339914 131.87842792 39 117 C39.32226562 115.78441406 39.64453125 114.56882812 39.9765625 113.31640625 C44.3888534 93.17244266 43.07752017 70.27522495 40 50 C39.21372498 44.72137289 38.43996959 39.44095054 37.66903687 34.1600647 C37.31846478 31.79031981 36.95472179 29.42288528 36.58911133 27.05541992 C36.36768765 25.57345178 36.14656512 24.0914386 35.92578125 22.609375 C35.81758057 21.93193741 35.70937988 21.25449982 35.59790039 20.55653381 C35.00083937 16.46350486 35.10789224 13.03693401 36 9 C37.32 9 38.64 9 40 9 C42.25065102 7.08333079 42.25065102 7.08333079 44 5 C45.82734025 10.74096356 46.72112598 16.38992868 47.47265625 22.359375 C47.60063095 23.34440002 47.72860565 24.32942505 47.86045837 25.34429932 C48.12929901 27.42159126 48.3955723 29.4992169 48.65942383 31.57714844 C49.05953717 34.72667778 49.46753216 37.87510598 49.87695312 41.0234375 C50.13848668 43.05202333 50.39956887 45.08066741 50.66015625 47.109375 C50.77996353 48.03683533 50.89977081 48.96429565 51.02320862 49.91986084 C54.96269849 81.04670303 54.77528686 112.81426716 37 140 C32.80745223 145.32547376 28.34400911 149.83979038 23 154 C22.34257812 154.55042969 21.68515625 155.10085937 21.0078125 155.66796875 C15.88446097 159.8027898 12.32442296 161.21904757 5.609375 160.87890625 C-5.55438141 159.55688246 -16.31698953 153.20934067 -23.32421875 144.4765625 C-36.13716979 125.54087261 -37.09756173 103.2010804 -33.1015625 81.33984375 C-27.50579715 53.21657565 -19.67397529 21.91893097 0 0 Z " fill="#A72A45" transform="translate(220,65)"/>
    <path d="M0 0 C0.93416748 0.05526855 1.86833496 0.11053711 2.83081055 0.16748047 C22.79678844 1.50981224 42.50143781 4.26867085 62.0625 8.4375 C62.73729401 8.58084778 63.41208801 8.72419556 64.10733032 8.87188721 C73.33979514 10.85337485 82.39322251 13.24085192 91.4375 15.9375 C91.4375 16.2675 91.4375 16.5975 91.4375 16.9375 C90.7606868 16.95589432 90.0838736 16.97428864 89.3865509 16.99324036 C46.94849626 18.12634584 46.94849626 18.12634584 4.5625 20.4375 C3.18233704 20.53198929 3.18233704 20.53198929 1.77429199 20.62838745 C-6.4560275 21.198262 -14.67355303 21.81499001 -22.87890625 22.6796875 C-33.37693561 23.77829034 -42.61227454 23.84812824 -53.04614258 22.12011719 C-60.60818735 20.91541132 -68.03398555 20.59084441 -75.6875 20.5625 C-76.78940674 20.54912598 -77.89131348 20.53575195 -79.02661133 20.52197266 C-93.31167709 20.59752646 -106.40608805 24.2369588 -116.67578125 34.484375 C-120.59860015 37.50567652 -125.88629868 37.16034887 -130.6640625 37.4375 C-131.34117279 37.47810547 -132.01828308 37.51871094 -132.71591187 37.56054688 C-134.87292894 37.68947759 -137.03017657 37.81381024 -139.1875 37.9375 C-142.01315594 38.10193917 -144.83866587 38.26866459 -147.6640625 38.4375 C-148.34726059 38.47807022 -149.03045868 38.51864044 -149.73435974 38.56044006 C-154.57616632 38.85603278 -159.39989546 39.25478567 -164.2253418 39.74780273 C-168.01106897 40.05507423 -171.7664969 39.99972956 -175.5625 39.9375 C-170.85693385 35.83750249 -165.56067807 32.87203007 -160.1875 29.75 C-158.20542414 28.59036496 -156.22365426 27.43020676 -154.2421875 26.26953125 C-153.2737793 25.70314941 -152.30537109 25.13676758 -151.30761719 24.55322266 C-148.90537025 23.13930677 -146.51509182 21.70893403 -144.1328125 20.26171875 C-143.47845215 19.86428467 -142.8240918 19.46685059 -142.14990234 19.05737305 C-140.44746306 18.01975825 -138.74707907 16.97877331 -137.046875 15.9375 C-135.88795907 15.26642342 -134.72627878 14.60010761 -133.5625 13.9375 C-132.86012207 13.52081055 -132.15774414 13.10412109 -131.43408203 12.67480469 C-124.22786914 8.69090616 -117.01792975 7.41605514 -108.9375 6.1875 C-107.66648437 5.97996094 -106.39546875 5.77242188 -105.0859375 5.55859375 C-79.2737079 1.39099418 -79.2737079 1.39099418 -69.9375 4.9375 C-52.56014716 10.72995095 -31.03160746 7.57028909 -14.12890625 1.296875 C-9.296462 -0.33624015 -5.05021431 -0.34327879 0 0 Z " fill="#3E866E" transform="translate(410.5625,317.0625)"/>
    <path d="M0 0 C0.495 0.99 0.495 0.99 1 2 C0.07645234 4.13126384 -1.05482031 6.09809949 -2.1875 8.125 C-2.455625 8.74375 -2.72375 9.3625 -3 10 C-2.505 10.99 -2.505 10.99 -2 12 C1.3 11.34 4.6 10.68 8 10 C5.93185887 15.09166388 4.1412629 16.97210408 -0.828125 19.26171875 C-2.00922852 19.81762695 -3.19033203 20.37353516 -4.40722656 20.94628906 C-5.68809741 21.52681106 -6.96902315 22.10721194 -8.25 22.6875 C-9.56568688 23.30111626 -10.88045849 23.91669857 -12.19433594 24.53417969 C-15.5011916 26.08431575 -18.81648265 27.61531737 -22.13476562 29.14080811 C-57.97721497 45.65108819 -93.27812126 63.35934467 -108.18359375 102.07421875 C-109.05410029 105.19388096 -109.26668928 107.82895196 -109.25 111.0625 C-109.25515625 112.06410156 -109.2603125 113.06570312 -109.265625 114.09765625 C-108.98928268 117.11710249 -108.34044907 119.290275 -107 122 C-99.31995504 127.40447609 -87.98283216 126.9689704 -79 126 C-64.69078613 123.28358164 -51.82700088 115.44708901 -41 106 C-39.78570312 104.96746094 -39.78570312 104.96746094 -38.546875 103.9140625 C-17.85501622 85.89002199 -3.46565265 62.72907905 10.73828125 39.53125 C11.35159302 38.54378784 11.35159302 38.54378784 11.97729492 37.53637695 C13.03905893 35.82594538 14.08657908 34.10669393 15.1328125 32.38671875 C17 30 17 30 19.2421875 29.14453125 C19.82226562 29.09683594 20.40234375 29.04914063 21 29 C21.33 29.66 21.66 30.32 22 31 C24.64 30.67 27.28 30.34 30 30 C26.7347993 36.12258743 23.16367328 41.87985723 19.1875 47.5625 C15.36283407 53.08007828 11.57515154 58.61665141 7.875 64.21875 C7.17866455 65.27247803 6.4823291 66.32620605 5.76489258 67.41186523 C4.41722336 69.45578006 3.07309207 71.50203372 1.7331543 73.55102539 C-3.81614105 81.9533924 -9.68305916 90.03998311 -17 97 C-17.91458984 97.96292969 -17.91458984 97.96292969 -18.84765625 98.9453125 C-35.40909503 116.1980636 -56.93544237 129.26660927 -81 132 C-84.7661528 132.02874926 -88.29567599 131.65028886 -92 131 C-93.20269531 130.8453125 -93.20269531 130.8453125 -94.4296875 130.6875 C-100.28114878 129.74180929 -104.21257477 127.59969099 -108 123 C-115.12766149 111.52389782 -116.75340331 98.88495828 -114.41796875 85.71875 C-106.79065279 59.80677251 -82.21193873 42.35732249 -61 28 C-60.29294922 27.51998535 -59.58589844 27.0399707 -58.85742188 26.54541016 C-41.08549819 14.55712769 -21.67382944 2.83781728 0 0 Z " fill="#A72A45" transform="translate(422,92)"/>
    <path d="M0 0 C-4 7 -8 14 -12 21 C-10.90123535 20.76812988 -9.8024707 20.53625977 -8.67041016 20.29736328 C-4.55170606 19.42834684 -0.4328564 18.56002201 3.68603516 17.69189453 C5.46081386 17.31773109 7.23555426 16.9433859 9.01025391 16.56884766 C27.04108261 12.76380502 27.04108261 12.76380502 34.08740234 11.39013672 C36.15272393 10.96884697 38.19994508 10.48982513 40.25 10 C50.45530533 7.72821029 60.88478473 6.73839632 71.28051758 5.78515625 C76.19363538 5.3239351 81.06046698 4.7105596 85.9453125 4.0078125 C94.91854686 2.78976218 103.89819468 2.32091358 112.9375 1.875 C114.60354447 1.78831309 116.26956043 1.7010764 117.93554688 1.61328125 C121.95673216 1.4025416 125.97822485 1.19915167 130 1 C129.37097778 1.88643188 129.37097778 1.88643188 128.72924805 2.79077148 C128.18308838 3.58040283 127.63692871 4.37003418 127.07421875 5.18359375 C126.25957153 6.34846313 126.25957153 6.34846313 125.4284668 7.53686523 C123.10361109 11.54566189 122.39645402 15.41452264 123 20 C124.08469462 22.37128495 125.30569512 24.32473901 126.87109375 26.40625 C128 28 128 28 128 30 C127.0205542 29.96447021 126.0411084 29.92894043 125.03198242 29.89233398 C101.12053564 29.04492954 77.4940363 28.86716522 53.6171875 30.80322266 C52.08106366 30.91871853 50.54045959 31 49 31 C47.27466897 31.18278985 45.55092037 31.38061966 43.828125 31.5859375 C42.77834473 31.7106543 41.72856445 31.83537109 40.64697266 31.96386719 C36.09724004 32.51451759 31.5491475 33.07821694 27.00097656 33.64160156 C24.63431673 33.92424528 22.271343 34.1777311 19.8984375 34.3984375 C11.83721484 35.26420127 4.78422271 37.67944685 -2.69482422 40.70019531 C-3.46971191 41.00924805 -4.24459961 41.31830078 -5.04296875 41.63671875 C-5.73414795 41.92248779 -6.42532715 42.20825684 -7.13745117 42.50268555 C-9 43 -9 43 -12 42 C-13.39453125 39.7421875 -13.39453125 39.7421875 -14.8125 36.875 C-18.50605986 29.83529432 -22.03475458 24.94658088 -29 21 C-29.35220628 16.43486479 -29.33051851 12.4053782 -28 8 C-24.38426462 4.91132323 -20.481103 3.47847857 -16 2 C-14.783125 1.54625 -13.56625 1.0925 -12.3125 0.625 C-8.16301154 -0.15792235 -4.20753368 -0.17173607 0 0 Z " fill="#B2DFD2" transform="translate(161,352)"/>
    <path d="M0 0 C0.33 0 0.66 0 1 0 C1.03867187 1.19882813 1.03867187 1.19882813 1.078125 2.421875 C1.66999602 13.88265023 3.79900912 24.50001466 12 33 C15.79455862 36.01618762 19.2191349 36.53128774 24 37 C22.80254764 40.59235709 21.67118586 41.25390793 18.6875 43.5 C14.44780048 46.79142618 10.43913482 50.2361096 6.5 53.875 C5.98397217 54.35130859 5.46794434 54.82761719 4.9362793 55.31835938 C2.9259948 57.18316496 0.93904845 59.06095155 -1 61 C-2.0725 61.7425 -3.145 62.485 -4.25 63.25 C-9.26608282 66.9571415 -13.49668302 71.39207177 -17.85766602 75.82641602 C-21.44842429 79.4711779 -25.10380069 82.92505626 -29.01171875 86.23046875 C-31.61543568 88.54772567 -34.05298536 91.02020914 -36.5 93.5 C-40.20972734 97.25462858 -43.9880816 100.85882851 -48.0078125 104.28125 C-49.40130591 105.48347961 -50.7694189 106.71547441 -52.1171875 107.96875 C-59.3072411 114.65041597 -67.03410745 120.53880423 -74.88330078 126.4140625 C-76.8019461 127.85160806 -78.71215628 129.29961041 -80.62109375 130.75 C-90.78812893 138.40721695 -101.4309041 145.33078374 -112.15380859 152.1796875 C-114.0094794 153.36650184 -115.86156172 154.55895155 -117.70947266 155.7578125 C-120.17187448 157.35394257 -122.64590331 158.9299656 -125.125 160.5 C-125.85243408 160.97501953 -126.57986816 161.45003906 -127.3293457 161.93945312 C-132.32159961 165.04959585 -132.32159961 165.04959585 -135.9921875 164.78125 C-136.65476563 164.5234375 -137.31734375 164.265625 -138 164 C-138.33 163.01 -138.66 162.02 -139 161 C-137.72769531 160.32517578 -137.72769531 160.32517578 -136.4296875 159.63671875 C-124.20064145 152.99241121 -113.6893422 144.69851971 -103.4765625 135.265625 C-102.07351606 133.98208094 -100.65979033 132.70940812 -99.21386719 131.47436523 C-94.12896719 127.12641625 -89.53196457 122.47950453 -85 117.5625 C-80.98402674 113.22885698 -76.95829763 108.92962463 -72.75390625 104.77734375 C-69.93998413 101.98438002 -67.35724852 99.14833214 -64.9375 96 C-62.03148023 92.235528 -58.96730076 88.65653702 -55.8269043 85.08837891 C-45.18762514 72.92635914 -35.36314985 60.16314821 -26 47 C-25.52014648 46.32694824 -25.04029297 45.65389648 -24.54589844 44.96044922 C-18.48257196 36.38121065 -13.5175581 27.56438422 -9.00292969 18.08642578 C-7.21537879 14.36772813 -5.35257113 10.6866083 -3.5 7 C-2.82260552 5.64598895 -2.14549204 4.29183726 -1.46875 2.9375 C-0.74171875 1.4834375 -0.74171875 1.4834375 0 0 Z " fill="#68B19C" transform="translate(306,185)"/>
    <path d="M0 0 C8.78874151 2.77677079 17.90790573 5.95120583 23 14 C25.23579618 18.55439962 26.70475127 23.11790865 28 28 C28.78761719 27.71125 29.57523438 27.4225 30.38671875 27.125 C43.975819 22.49344867 53.98091262 22.92670694 67 29 C68.57394531 29.68835938 68.57394531 29.68835938 70.1796875 30.390625 C75.75529881 33.57227577 78.17331631 39.36513926 80.04296875 45.32421875 C80.76955364 48.20667992 81.42865972 51.08315749 82 54 C82.89525391 53.566875 82.89525391 53.566875 83.80859375 53.125 C93.33937677 49.04644798 104.29060509 47.78735294 114.203125 51.3515625 C117.56352338 52.7179833 120.79746962 54.29469064 124 56 C120.46115953 57.17961349 117.79016081 56.99040746 114.0625 56.875 C106.93116926 56.78297728 100.77156419 57.81055837 94 60 C92.98292969 60.21269531 91.96585937 60.42539062 90.91796875 60.64453125 C87.44280975 61.64198842 85.56612704 62.42478933 83 65 C81.35157394 69.50160733 81.07218373 74.313191 80.58984375 79.05078125 C79.54454161 89.18262042 75.66350012 99.20771024 69 107 C66 109 66 109 63.63671875 108.765625 C60.87979314 107.96509549 58.4026008 106.98823276 55.8125 105.75 C54.95269531 105.35296875 54.09289062 104.9559375 53.20703125 104.546875 C50.45825027 102.62029577 49.88861496 101.20191151 49 98 C47.66800991 88.67606939 50.76086178 79.80001236 56.11328125 72.25 C59.63184292 68.0539513 63.64266198 64.31502515 68 61 C68.66 61 69.32 61 70 61 C69.06031591 50.2307258 68.12510409 41.18765614 62 32 C50.13170298 32.96268269 38.17788895 34.2147407 28 41 C27.54787556 43.48219314 27.2605477 45.80921191 27.0625 48.3125 C25.76846699 60.87239858 22.32107173 71.99858983 14.625 82.125 C12 84 12 84 8.6875 84.0625 C-1.4364722 81.14542327 -1.4364722 81.14542327 -4.20703125 77.34375 C-7.19260162 70.69097219 -6.28641213 63.73695387 -3.97265625 57.015625 C-0.42912699 49.08633633 5.99754921 40.00122539 14 36 C14.45372156 25.27872769 14.05523278 15.62306229 7 7 C5.17740312 5.33059553 3.32015059 3.74364994 1.390625 2.19921875 C0.93171875 1.80347656 0.4728125 1.40773438 0 1 C0 0.67 0 0.34 0 0 Z " fill="#EFB873" transform="translate(51,295)"/>
    <path d="M0 0 C1 2 1 2 0.5625 4.0625 C-0.51230634 9.67537756 -0.43141088 15.45328283 1 21 C1.9075 21.268125 2.815 21.53625 3.75 21.8125 C6.74566479 22.90706983 8.54123555 24.04902386 11 26 C10.1028125 26.27972656 9.205625 26.55945313 8.28125 26.84765625 C-0.53985666 29.68171015 -9.02273164 32.98088516 -17.45068359 36.83935547 C-20.42420324 38.19312988 -23.40985611 39.51866236 -26.39453125 40.84765625 C-43.23662303 48.42577461 -59.61856365 56.68087422 -74.98388672 67.00488281 C-75.95729004 67.65553711 -76.93069336 68.30619141 -77.93359375 68.9765625 C-78.80943115 69.57807129 -79.68526855 70.17958008 -80.58764648 70.79931641 C-83 72 -83 72 -85.15551758 71.85913086 C-88.29522336 70.39670536 -90.15453122 67.60252207 -92.25 64.9375 C-92.70890625 64.36966797 -93.1678125 63.80183594 -93.640625 63.21679688 C-94.76900148 61.8180802 -95.8856663 60.40992986 -97 59 C-93.57422536 55.15041819 -89.65457753 52.80615369 -85.25 50.25 C-84.20392578 49.63318359 -84.20392578 49.63318359 -83.13671875 49.00390625 C-81.42765309 47.99719634 -79.71425404 46.99784936 -78 46 C-78.68707031 45.60167969 -79.37414062 45.20335937 -80.08203125 44.79296875 C-80.98308594 44.26316406 -81.88414063 43.73335938 -82.8125 43.1875 C-83.70582031 42.66542969 -84.59914063 42.14335937 -85.51953125 41.60546875 C-87.68381806 40.20464689 -89.36553823 38.98198853 -91 37 C-91 36.34 -91 35.68 -91 35 C-87.5742756 33.69968386 -84.1484333 32.39967873 -80.72253418 31.099823 C-78.78792279 30.3656734 -76.853433 29.631204 -74.91894531 28.89672852 C-67.52137575 26.08897127 -60.12043832 23.29043148 -52.71484375 20.50390625 C-35.06387263 13.85786006 -17.46783424 7.1169875 0 0 Z " fill="#B2DFD2" transform="translate(101,377)"/>
    <path d="M0 0 C0.88107422 -0.00386719 1.76214844 -0.00773438 2.66992188 -0.01171875 C17.20697631 0.00973816 17.20697631 0.00973816 21.4375 2.125 C19.76998852 6.06639078 17.21039351 8.9142812 14.4375 12.125 C17.7375 12.455 21.0375 12.785 24.4375 13.125 C24.4375 13.785 24.4375 14.445 24.4375 15.125 C17.47749601 19.84882482 11.45220922 21.0321299 3.15234375 21.56640625 C1.97901993 21.66082504 0.80569611 21.75524384 -0.40318298 21.8525238 C-4.14256012 22.15084583 -7.88322129 22.42114593 -11.625 22.6875 C-69.4785134 26.51803511 -69.4785134 26.51803511 -117.5625 56.125 C-122.15087128 61.45279226 -126.41446393 66.64463928 -127.125 73.75 C-127.20878906 74.56726563 -127.29257812 75.38453125 -127.37890625 76.2265625 C-127.43949219 76.85304688 -127.50007813 77.47953125 -127.5625 78.125 C-127.8925 78.125 -128.2225 78.125 -128.5625 78.125 C-128.9290944 69.58470813 -128.50004582 62.18814016 -125.5625 54.125 C-125.28019531 53.31675781 -124.99789063 52.50851562 -124.70703125 51.67578125 C-117.33783719 34.14218159 -97.6755159 23.02228839 -80.90234375 16.1015625 C-55.72367702 6.39027516 -27.07138106 -0.11934481 0 0 Z " fill="#A72A45" transform="translate(446.5625,225.875)"/>
    <path d="M0 0 C0.99 0.49371094 1.98 0.98742187 3 1.49609375 C4.3330379 2.14383752 5.66638818 2.79093867 7 3.4375 C7.97259766 3.92573242 7.97259766 3.92573242 8.96484375 4.42382812 C13.69670273 6.69605744 17.76438733 7.58512444 23 8 C20.69206644 15.60496162 17.49115036 22.5576265 14 29.6875 C13.46632813 30.78900391 12.93265625 31.89050781 12.3828125 33.02539062 C10.92942725 36.02073809 9.47025578 39.01289946 8 42 C7.48824219 43.08772705 6.97648437 44.1754541 6.44921875 45.29614258 C5 48 5 48 3 49 C2.73445313 49.81339844 2.46890625 50.62679687 2.1953125 51.46484375 C0.61095689 56.15060135 -1.72395766 60.24971241 -4.125 64.5625 C-4.64779541 65.51068604 -5.17059082 66.45887207 -5.70922852 67.43579102 C-6.8553484 69.51335225 -8.00364101 71.58971596 -9.15380859 73.66503906 C-11.0745867 77.13473345 -12.98564811 80.60969289 -14.89453125 84.0859375 C-23.1552935 99.11904543 -31.52076031 114.08873431 -40 129 C-44.95 128.67 -49.9 128.34 -55 128 C-53.88625 126.081875 -52.7725 124.16375 -51.625 122.1875 C-36.63258782 99.21142989 -36.63258782 99.21142989 -29 74 C-28.34 74 -27.68 74 -27 74 C-26.88390381 73.30011963 -26.76780762 72.60023926 -26.64819336 71.87915039 C-25.93609711 68.71615564 -24.86461595 65.93119371 -23.62890625 62.93359375 C-23.14164063 61.73903564 -22.654375 60.54447754 -22.15234375 59.3137207 C-21.76344971 58.3663353 -21.76344971 58.3663353 -21.36669922 57.39981079 C-15.50299557 43.09190215 -10.17716561 28.64659986 -5.07421875 14.04931641 C-3.41970761 9.35276091 -1.71348274 4.67531003 0 0 Z " fill="#91CDBD" transform="translate(205,217)"/>
    <path d="M0 0 C1.46179688 0.80050781 1.46179688 0.80050781 2.953125 1.6171875 C3.96632813 2.30167969 3.96632813 2.30167969 5 3 C5 3.66 5 4.32 5 5 C2.03 6.32 -0.94 7.64 -4 9 C-1.69 10.32 0.62 11.64 3 13 C2.34 13.66 1.68 14.32 1 15 C-5.17839766 14.6732676 -10.77836606 12.53958879 -16.578125 10.5078125 C-17.58534607 10.16120575 -18.59256714 9.814599 -19.63031006 9.45748901 C-22.83895037 8.35256933 -26.04464903 7.23942246 -29.25 6.125 C-32.44138138 5.01867379 -35.63338745 3.91425895 -38.82684326 2.81393433 C-40.80831064 2.13089907 -42.78858379 1.4443852 -44.76739502 0.75369263 C-59.43418302 -4.31150861 -73.43319791 -7.35871972 -89 -7.3125 C-90.08539063 -7.32861328 -91.17078125 -7.34472656 -92.2890625 -7.36132812 C-101.85881437 -7.367038 -111.19042935 -6.04557529 -119.625 -1.25 C-122.0390625 0.109375 -122.0390625 0.109375 -124 1 C-124.66 0.67 -125.32 0.34 -126 0 C-96.53365625 -32.42943977 -34.04016074 -18.74561847 0 0 Z " fill="#A72A45" transform="translate(415,355)"/>
    <path d="M0 0 C8.78874151 2.77677079 17.90790573 5.95120583 23 14 C30.1017404 28.45711439 28.7669932 48.37800704 24.26953125 63.5390625 C18.28147799 79.86341694 18.28147799 79.86341694 12 84 C6.60104528 84.10186707 1.2882817 82.3149863 -3 79 C-6.48375479 74.21970216 -6.44260999 68.58710959 -5.68359375 62.921875 C-3.07893068 51.78880085 3.61303938 44.30433008 12 37 C12.99 36.505 12.99 36.505 14 36 C14.45372156 25.27872769 14.05523278 15.62306229 7 7 C5.17740312 5.33059553 3.32015059 3.74364994 1.390625 2.19921875 C0.93171875 1.80347656 0.4728125 1.40773438 0 1 C0 0.67 0 0.34 0 0 Z " fill="#F0B872" transform="translate(51,295)"/>
    <path d="M0 0 C0.33 0.66 0.66 1.32 1 2 C3.64 1.67 6.28 1.34 9 1 C5.7347993 7.12258743 2.16367328 12.87985723 -1.8125 18.5625 C-5.63716593 24.08007828 -9.42484846 29.61665141 -13.125 35.21875 C-13.82133545 36.27247803 -14.5176709 37.32620605 -15.23510742 38.41186523 C-16.58277664 40.45578006 -17.92690793 42.50203372 -19.2668457 44.55102539 C-24.81614105 52.9533924 -30.68305916 61.03998311 -38 68 C-38.91458984 68.96292969 -38.91458984 68.96292969 -39.84765625 69.9453125 C-56.40909503 87.1980636 -77.93544237 100.26660927 -102 103 C-105.7661528 103.02874926 -109.29567599 102.65028886 -113 102 C-113.80179687 101.896875 -114.60359375 101.79375 -115.4296875 101.6875 C-121.27215066 100.74326353 -125.11708339 98.48271674 -129 94 C-130.9375 90.625 -130.9375 90.625 -132 88 C-131.34 88 -130.68 88 -130 88 C-129.7525 88.78375 -129.505 89.5675 -129.25 90.375 C-128.24842774 93.03163337 -128.24842774 93.03163337 -126.3125 94.1875 C-110.34954747 99.79610494 -96.5944802 97.3733699 -81.52734375 90.390625 C-74.30383033 86.70705559 -68.09719084 82.32009789 -62 77 C-60.78570312 75.96746094 -60.78570312 75.96746094 -59.546875 74.9140625 C-40.13313271 58.00334988 -26.50953083 36.6691695 -13 15 C-11.25882402 12.22348274 -9.5078944 9.45345351 -7.75 6.6875 C-7.06421875 5.59824219 -6.3784375 4.50898437 -5.671875 3.38671875 C-3.84475136 0.77837169 -3.17779685 0 0 0 Z " fill="#A82A46" transform="translate(443,121)"/>
    <path d="M0 0 C0.66 0.33 1.32 0.66 2 1 C2.53076172 3.12841797 2.53076172 3.12841797 2.9296875 5.9921875 C3.0834082 7.07218018 3.23712891 8.15217285 3.39550781 9.26489258 C3.63285645 11.05189575 3.63285645 11.05189575 3.875 12.875 C4.04354492 14.11209717 4.21208984 15.34919434 4.38574219 16.6237793 C4.84194031 20.02818937 5.28661114 23.43363049 5.72277832 26.84063721 C6.00294575 29.02294535 6.28788498 31.20459547 6.57324219 33.38623047 C11.11215132 68.34176288 14.28260525 103.97954491 -6 135 C-10.19254777 140.32547376 -14.65599089 144.83979038 -20 149 C-20.65742188 149.55042969 -21.31484375 150.10085937 -21.9921875 150.66796875 C-26.28731182 154.13436576 -29.29627749 156 -35 156 C-45.20472441 154.79527559 -45.20472441 154.79527559 -48 152 C-47.10539063 152.05800781 -46.21078125 152.11601562 -45.2890625 152.17578125 C-35.45658853 152.54266461 -29.2166433 151.30903219 -21.59765625 145.015625 C-11.67237119 135.70138079 -7.33598466 124.90339422 -4 112 C-3.67773438 110.78441406 -3.35546875 109.56882812 -3.0234375 108.31640625 C1.3888534 88.17244266 0.07752017 65.27522495 -3 45 C-3.78627502 39.72137289 -4.56003041 34.44095054 -5.33096313 29.1600647 C-5.68153522 26.79031981 -6.04527821 24.42288528 -6.41088867 22.05541992 C-6.63231235 20.57345178 -6.85343488 19.0914386 -7.07421875 17.609375 C-7.18241943 16.93193741 -7.29062012 16.25449982 -7.40209961 15.55653381 C-7.99916063 11.46350486 -7.89210776 8.03693401 -7 4 C-5.68 4 -4.36 4 -3 4 C-1.22590192 2.07977297 -1.22590192 2.07977297 0 0 Z " fill="#A92B46" transform="translate(263,70)"/>
    <path d="M0 0 C9.52131531 3.27142629 13.71939189 12.47014354 18 21 C23.18105005 19.51648892 28.238714 17.92563278 33.25 15.9375 C39.66559491 13.53510363 46.22096357 12.75212667 53 12 C49.22547007 17.01250649 45.0004895 20.24963287 40 24 C43.96 25.98 47.92 27.96 52 30 C48.56472107 32.29018595 45.26192168 33.10869109 41.3125 34.0625 C40.28866211 34.32256836 40.28866211 34.32256836 39.24414062 34.58789062 C31.56007806 36.48169641 24.09113178 37.18052416 16.1875 37.1875 C15.06311523 37.20586914 15.06311523 37.20586914 13.91601562 37.22460938 C10.07247772 37.23491377 8.27289093 37.18192729 5 35 C4.89192869 36.93627769 4.8143775 38.87427756 4.75 40.8125 C4.68039063 42.43091797 4.68039063 42.43091797 4.609375 44.08203125 C4.70283547 47.12076818 4.70283547 47.12076818 7.015625 48.88671875 C7.67046875 49.25410156 8.3253125 49.62148438 9 50 C8.34 50.37125 7.68 50.7425 7 51.125 C3.15669917 53.52706302 -0.40566028 56.24404225 -4 59 C-4.33 58.34 -4.66 57.68 -5 57 C-4.40667815 55.41681456 -3.74852016 53.85777774 -3.0625 52.3125 C0.50576291 42.87147106 0.23786619 32.68813011 -3.24609375 23.24609375 C-5.2864379 17.16734823 -4.76759016 13.06665285 -2.5625 7.125 C-2.19801758 6.09246094 -2.19801758 6.09246094 -1.82617188 5.0390625 C-1.22972474 3.35497647 -0.61654525 1.6768324 0 0 Z " fill="#CC8334" transform="translate(132,373)"/>
    <path d="M0 0 C1.62749829 3.25499657 1.00170258 6.01468737 0.24511719 9.49560547 C-2.33868175 14.69258772 -8.19115824 15.79827927 -13.375 17.5625 C-15.86172969 18.49067435 -18.34740231 19.42168548 -20.83203125 20.35546875 C-22.05873535 20.80325684 -23.28543945 21.25104492 -24.54931641 21.71240234 C-29.13873134 23.42490937 -33.60590636 25.34541669 -38.0625 27.375 C-38.83480957 27.72103271 -39.60711914 28.06706543 -40.40283203 28.42358398 C-45.25728637 30.63433274 -50.00091881 33.01770727 -54.73046875 35.484375 C-55.89376709 36.08588379 -57.05706543 36.68739258 -58.25561523 37.30712891 C-60.53701402 38.49397271 -62.80924219 39.69866208 -65.07055664 40.92333984 C-71.27007254 44.15058996 -75.15863687 46.03947199 -82 44 C-84.49609375 42.6953125 -84.49609375 42.6953125 -86.4375 41.125 C-87.09621094 40.61195313 -87.75492188 40.09890625 -88.43359375 39.5703125 C-90 38 -90 38 -91 35 C-87.5742756 33.69968386 -84.1484333 32.39967873 -80.72253418 31.099823 C-78.78792279 30.3656734 -76.853433 29.631204 -74.91894531 28.89672852 C-67.52137575 26.08897127 -60.12043832 23.29043148 -52.71484375 20.50390625 C-35.06387263 13.85786006 -17.46783424 7.1169875 0 0 Z " fill="#69B29D" transform="translate(101,377)"/>
    <path d="M0 0 C0.33 0 0.66 0 1 0 C1.10861833 2.70942393 1.18758577 5.414439 1.25 8.125 C1.28351563 8.88554687 1.31703125 9.64609375 1.3515625 10.4296875 C1.46271662 16.87662642 -0.55375751 20.07919777 -4.69140625 25.01953125 C-19.53157324 39.24006705 -42.99537477 45.35642038 -63.046875 45.23046875 C-67.1360502 44.91134 -71.98145159 44.01854841 -75 41 C-75.07313567 38.46950598 -75.09247527 35.96695163 -75.0625 33.4375 C-75.05798828 32.72658203 -75.05347656 32.01566406 -75.04882812 31.28320312 C-75.03700864 29.52209987 -75.01907263 27.76103964 -75 26 C-74.49855469 26.65097656 -73.99710938 27.30195313 -73.48046875 27.97265625 C-70.16891686 30.67926323 -67.40190722 30.56493195 -63.3125 30.4375 C-62.56863037 30.42501221 -61.82476074 30.41252441 -61.05834961 30.3996582 C-52.87357679 30.14772644 -44.98027996 28.75878467 -37 27 C-36.08863281 26.80664062 -35.17726562 26.61328125 -34.23828125 26.4140625 C-24.46230569 23.92563236 -11.338089 17.99071393 -5 10 C-3.10028049 6.75729112 -1.48064343 3.45256024 0 0 Z " fill="#DE4665" transform="translate(211,379)"/>
    <path d="M0 0 C0.99 0.495 0.99 0.495 2 1 C-5.04205345 6.62368933 -12.22250701 11.91604541 -19.75 16.875 C-36.44415415 27.87961889 -52.33124276 39.35248535 -67 53 C-67.8353125 53.75796875 -68.670625 54.5159375 -69.53125 55.296875 C-78.74012727 63.99414797 -86.46648004 74.36152113 -89 87 C-90.32 86.67 -91.64 86.34 -93 86 C-92.26321297 69.68016726 -86.65338813 59.09498137 -74.875 48.0625 C-69.1336573 42.99614226 -63.16666868 38.21317334 -57.06933594 33.58325195 C-55.49685405 32.38014376 -53.94037372 31.15608761 -52.39160156 29.92260742 C-44.89381099 24.07220994 -37.11921649 19.63861473 -28.625 15.4375 C-26.17692118 14.212485 -23.73258351 12.98017014 -21.2890625 11.74609375 C-20.3943222 11.29778702 -20.3943222 11.29778702 -19.48150635 10.84042358 C-14.33122327 8.23451904 -9.34223944 5.37500692 -4.40957642 2.37828064 C-2.97295033 1.52677658 -1.48954945 0.7551133 0 0 Z " fill="#EE5A7D" transform="translate(416,120)"/>
    <path d="M0 0 C0 1.32 0 2.64 0 4 C2.64 4 5.28 4 8 4 C3.58199095 8.84052135 -1.55234405 12.36388233 -6.9375 16.0625 C-8.25911133 16.97999023 -8.25911133 16.97999023 -9.60742188 17.91601562 C-11.31426583 19.09866031 -13.02428043 20.27674518 -14.73779297 21.44970703 C-16.56488683 22.70181646 -18.38007463 23.97128876 -20.19140625 25.24609375 C-23.34868749 27.21774782 -26.57373184 28.54887466 -30 30 C-32.85003093 31.51795888 -35.63834195 33.14062155 -38.4375 34.75 C-62.04133496 48.01301556 -89.53840402 59.26962858 -117 58 C-117 57.67 -117 57.34 -117 57 C-115.30810547 56.79697266 -115.30810547 56.79697266 -113.58203125 56.58984375 C-94.7782493 54.10869089 -77.55036909 48.2202728 -61 39 C-59.980271 38.43756592 -59.980271 38.43756592 -58.93994141 37.86376953 C-48.58916475 32.10694425 -38.91406895 25.59580025 -29.31982422 18.66650391 C-24.98817637 15.55475604 -20.61787598 12.49807376 -16.25 9.4375 C-15.40397217 8.84163086 -14.55794434 8.24576172 -13.6862793 7.63183594 C-2.80795076 0 -2.80795076 0 0 0 Z " fill="#A92A45" transform="translate(475,262)"/>
    <path d="M0 0 C-10.09819111 3.26027313 -20.22877623 5.74642156 -30.625 7.875 C-61.23099049 14.21781707 -99.19438123 23.03325748 -120 48 C-120.66 48 -121.32 48 -122 48 C-121.68140124 41.78732413 -118.6672088 37.77552079 -115 33 C-114.25363281 31.99066406 -114.25363281 31.99066406 -113.4921875 30.9609375 C-98.10601541 12.99847613 -63.36831412 6.69103313 -41.25 3.9375 C-39.91853958 3.76649254 -38.58715969 3.59485686 -37.25585938 3.42260742 C-33.50482156 2.94077394 -29.75274798 2.46830422 -26 2 C-24.59331055 1.82355957 -24.59331055 1.82355957 -23.15820312 1.64355469 C-19.78327032 1.22068125 -16.40815576 0.80143318 -13.03125 0.39453125 C-10.95904861 0.12482463 -8.89506435 -0.21469665 -6.84375 -0.61328125 C-4.13830194 -0.98119246 -2.54737408 -0.88178334 0 0 Z " fill="#EE597D" transform="translate(452,253)"/>
    <path d="M0 0 C0.33 0 0.66 0 1 0 C0.64379485 8.77300902 -1.77822946 16.84818181 -4.3125 25.1875 C-5.10369843 27.82580127 -5.89010726 30.46551771 -6.67578125 33.10546875 C-6.8698909 33.75538788 -7.06400055 34.40530701 -7.26399231 35.07492065 C-12.75345704 53.55988506 -17.20176299 71.51776299 -17.35009766 90.87744141 C-17.36662563 92.45213635 -17.39387448 94.02675724 -17.43212891 95.60107422 C-17.64905951 104.61218285 -17.64467716 111.78874161 -12.98291016 119.82714844 C-12 122 -12 122 -12.34912109 124.29003906 C-12.56391113 124.85432617 -12.77870117 125.41861328 -13 126 C-19.91032617 121.07243295 -24.1108547 112.58642108 -25.75390625 104.26953125 C-28.81622793 76.02812021 -19.40968021 48.95220994 -8.67041016 23.36572266 C-5.44613123 15.674628 -2.49028679 7.96686272 0 0 Z " fill="#ED597D" transform="translate(236,87)"/>
    <path d="M0 0 C0.0825 0.61875 0.165 1.2375 0.25 1.875 C0.81258459 4.18437567 0.81258459 4.18437567 3.0625 5.25 C3.701875 5.4975 4.34125 5.745 5 6 C1.88419094 8.07720604 0.06204837 8.54347132 -3.56640625 9.21875 C-4.68176758 9.42806152 -5.79712891 9.63737305 -6.94628906 9.85302734 C-12.95994675 10.92892478 -18.97531686 11.98746311 -25 13 C-25.8357959 13.1453418 -26.6715918 13.29068359 -27.53271484 13.44042969 C-53.62511939 17.82738795 -82.65508985 15.38711834 -107 5 C-103.52038609 3.8401287 -102.68284321 4.22157014 -99.3125 5.375 C-72.81808277 14.41775165 -38.47216907 6.16675193 -12.00976562 0.08105469 C-7.68453619 -0.87298289 -4.3168838 -1.04858061 0 0 Z " fill="#A82A45" transform="translate(413,385)"/>
    <path d="M0 0 C0.66 0 1.32 0 2 0 C2.67805058 10.75840255 2.600374 22.58337716 -4.9296875 31.2109375 C-6.86136516 32.88019857 -8.8084098 34.43942959 -10.875 35.9375 C-12.26034066 36.94425566 -13.63407778 37.9670517 -15 39 C-15.9384375 39.70382812 -16.876875 40.40765625 -17.84375 41.1328125 C-21.83919301 44.49372945 -24.6354556 48.69551608 -27.625 52.9375 C-33.00694556 60.42570691 -38.66598696 67.50229343 -44.76953125 74.41015625 C-46.98844354 76.7728705 -46.98844354 76.7728705 -48 79 C-48.66 79 -49.32 79 -50 79 C-48.75747593 74.59411106 -47.30108189 71.82695375 -44.25 68.4375 C-30.3893828 52.02244213 -19.47849192 32.69814038 -8.58984375 14.234375 C-8.0395752 13.30439697 -7.48930664 12.37441895 -6.92236328 11.41625977 C-5.86808817 9.62923628 -4.82061127 7.8381805 -3.78076172 6.04272461 C-3.31299316 5.24874268 -2.84522461 4.45476074 -2.36328125 3.63671875 C-1.95376221 2.93248779 -1.54424316 2.22825684 -1.12231445 1.50268555 C-0.75195068 1.00679932 -0.38158691 0.51091309 0 0 Z " fill="#579E86" transform="translate(130,404)"/>
    <path d="M0 0 C5.95739155 1.96518985 12.01731307 3.5207763 18.10546875 5.02441406 C18.10546875 5.35441406 18.10546875 5.68441406 18.10546875 6.02441406 C8.3005175 5.63299884 -0.97818728 3.63054804 -10.52246094 1.53857422 C-14.09720685 0.76372707 -17.67899611 0.0346304 -21.26953125 -0.66308594 C-22.43226563 -0.89382813 -23.595 -1.12457031 -24.79296875 -1.36230469 C-35.23617024 -3.10081674 -45.89782811 -3.18096173 -56.45703125 -3.22558594 C-58.29297852 -3.25652344 -58.29297852 -3.25652344 -60.16601562 -3.28808594 C-68.66827435 -3.32428502 -77.33058293 -2.82811398 -85.04125977 1.125 C-86.89453125 2.02441406 -86.89453125 2.02441406 -89.89453125 2.02441406 C-89.53990896 -0.75245878 -89.14066557 -1.76689599 -86.96875 -3.60839844 C-86.18113281 -4.10082031 -85.39351563 -4.59324219 -84.58203125 -5.10058594 C-83.80214844 -5.59816406 -83.02226562 -6.09574219 -82.21875 -6.60839844 C-59.65386804 -19.88185841 -22.66425694 -7.67978741 0 0 Z " fill="#ED597D" transform="translate(383.89453125,365.9755859375)"/>
    <path d="M0 0 C0.74080811 0.00088623 1.48161621 0.00177246 2.24487305 0.00268555 C10.72766405 0.18235546 19.27204543 1.84948065 25.9375 7.375 C23.93836953 8.00277573 21.93814618 8.62707153 19.9375 9.25 C18.266875 9.77207031 18.266875 9.77207031 16.5625 10.3046875 C15.36625 10.65789062 14.17 11.01109375 12.9375 11.375 C11.71546875 11.74238281 10.4934375 12.10976563 9.234375 12.48828125 C3.93192829 13.78193507 -1.38228771 13.70479367 -6.8125 13.6875 C-7.83988281 13.70361328 -8.86726562 13.71972656 -9.92578125 13.73632812 C-11.40884766 13.73729492 -11.40884766 13.73729492 -12.921875 13.73828125 C-13.81358398 13.74126221 -14.70529297 13.74424316 -15.62402344 13.74731445 C-18.50918886 13.30679811 -19.89604991 12.28151389 -22.0625 10.375 C-20.54910052 6.13748146 -17.87258791 4.57312764 -14.0625 2.375 C-9.36795959 0.47272603 -5.01870519 -0.01083215 0 0 Z " fill="#A72A45" transform="translate(158.0625,453.625)"/>
    <path d="M0 0 C-0.26100346 14.07045901 -4.21152871 29.36012745 -13.0625 40.625 C-15 42 -15 42 -19 42 C-22.14430532 33.67683885 -21.24823277 26.07373545 -17.625 18 C-14.88235195 12.8826201 -6.55517127 0 0 0 Z " fill="#D08230" transform="translate(66,331)"/>
    <path d="M0 0 C-0.96558406 14.46405517 -4.09985909 30.03022568 -14.421875 40.8828125 C-16 42 -16 42 -19 42 C-22.1720615 35.85413085 -21.58712541 29.51418129 -19.875 23 C-17.38999871 15.5908026 -8.86781718 0 0 0 Z " fill="#CF8331" transform="translate(121,356)"/>
    <path d="M0 0 C1.11375 0.61875 2.2275 1.2375 3.375 1.875 C-0.06027893 4.16518595 -3.36307832 4.98369109 -7.3125 5.9375 C-7.99505859 6.11087891 -8.67761719 6.28425781 -9.38085938 6.46289062 C-17.06492194 8.35669641 -24.53386822 9.05552416 -32.4375 9.0625 C-33.56188477 9.08086914 -33.56188477 9.08086914 -34.70898438 9.09960938 C-38.55252228 9.10991377 -40.35210907 9.05692729 -43.625 6.875 C-43.3984375 4.546875 -43.3984375 4.546875 -42.625 1.875 C-40.6640625 0.328125 -40.6640625 0.328125 -38.25 -0.875 C-37.45851562 -1.28234375 -36.66703125 -1.6896875 -35.8515625 -2.109375 C-25.50470073 -6.82899616 -9.99282264 -4.90936583 0 0 Z " fill="#A72A45" transform="translate(180.625,401.125)"/>
    <path d="M0 0 C-4 7 -8 14 -12 21 C-11.34 21.33 -10.68 21.66 -10 22 C-21.48520179 25.47623318 -21.48520179 25.47623318 -25.19921875 24.30859375 C-26.8125 23.1875 -26.8125 23.1875 -29 21 C-29.35220628 16.43486479 -29.33051851 12.4053782 -28 8 C-24.38426462 4.91132323 -20.481103 3.47847857 -16 2 C-14.783125 1.54625 -13.56625 1.0925 -12.3125 0.625 C-8.16301154 -0.15792235 -4.20753368 -0.17173607 0 0 Z " fill="#91CCBB" transform="translate(161,352)"/>
    <path d="M0 0 C0.495 0.99 0.495 0.99 1 2 C-12.86789555 23.31336406 -12.86789555 23.31336406 -22 32 C-22.91458984 32.96292969 -22.91458984 32.96292969 -23.84765625 33.9453125 C-40.39437569 51.18272984 -61.94287788 64.29695257 -86 67 C-89.4090594 66.94949542 -92.65503893 66.65325122 -96 66 C-96 65.67 -96 65.34 -96 65 C-94.87464844 64.78085938 -93.74929688 64.56171875 -92.58984375 64.3359375 C-82.19984125 62.22673169 -72.6442276 59.50167322 -63 55 C-62.39091797 54.71672852 -61.78183594 54.43345703 -61.15429688 54.14160156 C-36.19148697 42.26392387 -16.02296526 22.17671279 0 0 Z " fill="#DA4665" transform="translate(427,157)"/>
    <path d="M0 0 C0.33 0 0.66 0 1 0 C5.285739 30.65068696 4.47561632 62.27258681 -13 89 C-17.1889471 94.3209001 -21.64447752 98.85651681 -27 103 C-27.66 102.67 -28.32 102.34 -29 102 C-28.5153125 101.51273437 -28.030625 101.02546875 -27.53125 100.5234375 C-18.39537364 90.86049135 -12.64295569 79.36342608 -8 67 C-7.71511719 66.27941406 -7.43023437 65.55882812 -7.13671875 64.81640625 C-1.41116788 49.28401439 -0.8656157 32.28802492 -0.4375 15.9375 C-0.39422008 14.38866234 -0.35060308 12.83983406 -0.30664062 11.29101562 C-0.20053934 7.52744068 -0.09900464 3.76376805 0 0 Z " fill="#DA4665" transform="translate(270,116)"/>
    <path d="M0 0 C3.14838555 3.04999851 6.16476909 6.20418506 9.125 9.4375 C9.78757813 10.15808594 10.45015625 10.87867188 11.1328125 11.62109375 C16.12765856 17.98482021 16.39405871 23.05754735 16.1875 30.875 C16.16719727 32.33679688 16.16719727 32.33679688 16.14648438 33.828125 C16.11131962 36.21932863 16.0621067 38.60936975 16 41 C14.89335428 38.80509914 13.82353766 36.61062573 12.80859375 34.37109375 C7.65115382 23.33622941 1.28948885 14.82557221 -9.12890625 8.33984375 C-9.74636719 7.89769531 -10.36382812 7.45554687 -11 7 C-11 6.34 -11 5.68 -11 5 C-7.37 3.35 -3.74 1.7 0 0 Z " fill="#A82944" transform="translate(196,467)"/>
    <path d="M0 0 C-2 1 -2 1 -4.3828125 0.22265625 C-5.28773437 -0.16019531 -6.19265625 -0.54304688 -7.125 -0.9375 C-8.49011719 -1.50791016 -8.49011719 -1.50791016 -9.8828125 -2.08984375 C-10.58148438 -2.39019531 -11.28015625 -2.69054687 -12 -3 C-11.505 -2.01 -11.505 -2.01 -11 -1 C-11.58378418 -0.89977539 -12.16756836 -0.79955078 -12.76904297 -0.69628906 C-27.80927546 1.70990321 -27.80927546 1.70990321 -42 7 C-43.98 7.99 -43.98 7.99 -46 9 C-46 5.04 -46 1.08 -46 -3 C-28.58122765 -10.10502556 -16.8497895 -8.56300778 0 0 Z " fill="#D08330" transform="translate(124,327)"/>
    <path d="M0 0 C6.42380965 3.12954829 11.55911214 9.73800024 14.4375 16.1875 C15.85776004 21.64575428 15.72191267 25.94678857 13.4375 31.1875 C10.6333731 28.70692621 8.67142831 26.07600953 6.6875 22.9375 C2.76471606 16.92454583 -1.98418294 11.69746208 -8.0625 7.8125 C-8.8875 7.27625 -9.7125 6.74 -10.5625 6.1875 C-10.5625 5.5275 -10.5625 4.8675 -10.5625 4.1875 C-3.80075503 0.27810403 -3.80075503 0.27810403 0 0 Z " fill="#A82944" transform="translate(196.5625,410.8125)"/>
    <path d="M0 0 C1.48030281 1.94776685 2.92986345 3.89500771 4.2890625 5.9296875 C8.89791188 12.64081906 14.74485965 16.48733024 22 20 C22 20.66 22 21.32 22 22 C43.51030546 28.63136335 63.60369536 30.88758867 86 31 C86 31.33 86 31.66 86 32 C60.93673721 35.87371433 34.08841998 34.77993173 12 21 C6.93722452 17.0394524 2.64225246 11.89150886 0 6 C-0.3125 2.5 -0.3125 2.5 0 0 Z " fill="#D94362" transform="translate(284,368)"/>
    <path d="M0 0 C-3.53884047 1.17961349 -6.20983919 0.99040746 -9.9375 0.875 C-21.67319888 0.72372669 -31.39587744 4.24318616 -42 9 C-42 5.37 -42 1.74 -42 -2 C-27.15058959 -8.69269202 -14.1598798 -7.53996769 0 0 Z " fill="#CC8333" transform="translate(175,351)"/>
    <path d="M0 0 C-1.39439026 1.25160956 -2.79058539 2.50120847 -4.1875 3.75 C-4.96480469 4.44609375 -5.74210937 5.1421875 -6.54296875 5.859375 C-7.35378906 6.56578125 -8.16460937 7.2721875 -9 8 C-9.70125 8.7528125 -10.4025 9.505625 -11.125 10.28125 C-15.58957622 12.95029013 -19.755396 12.17793493 -24.8125 11.75 C-26.28106445 11.65138672 -26.28106445 11.65138672 -27.77929688 11.55078125 C-30.18823332 11.38626852 -32.5939756 11.20211749 -35 11 C-35 10.34 -35 9.68 -35 9 C-5.7001243 -2.85006215 -5.7001243 -2.85006215 0 0 Z " fill="#579E88" transform="translate(185,386)"/>
    <path d="M0 0 C0.66 0 1.32 0 2 0 C2.2475 0.78375 2.495 1.5675 2.75 2.375 C3.75157226 5.03163337 3.75157226 5.03163337 5.6875 6.1875 C20.39187274 11.35390123 32.85658135 9.57625825 47 4 C48.99609703 3.3217367 50.99488768 2.65112904 53 2 C53 2.66 53 3.32 53 4 C24.4994944 16.61084319 24.4994944 16.61084319 12.046875 12.9609375 C6.03928982 10.14058263 2.49382088 6.16120452 0 0 Z " fill="#AC324C" transform="translate(311,209)"/>
    <path d="M0 0 C0.495 0.99 0.495 0.99 1 2 C-10.08459248 4.49756211 -20.57874036 6.75030173 -32 6 C-32 5.67 -32 5.34 -32 5 C-30.74445313 4.81824219 -29.48890625 4.63648438 -28.1953125 4.44921875 C-16.32277825 2.7426593 -16.32277825 2.7426593 -4.8125 -0.546875 C-3 -1 -3 -1 0 0 Z " fill="#B8324F" transform="translate(390,314)"/>
    <path d="M0 0 C1.0828125 1.11375 1.0828125 1.11375 2.1875 2.25 C7.07169959 7.02566182 11.85370035 10.13274359 18 13 C18 13.33 18 13.66 18 14 C8.33071749 13.78979821 8.33071749 13.78979821 4.5 10.75 C1.2662517 7.19287687 0 4.79880969 0 0 Z " fill="#AB2D49" transform="translate(319,304)"/>
    <path d="M0 0 C-1.54841575 3.34708051 -3.49105864 6.24667512 -5.625 9.25 C-6.25664062 10.14203125 -6.88828125 11.0340625 -7.5390625 11.953125 C-8.02117187 12.62859375 -8.50328125 13.3040625 -9 14 C-10.29856753 10.10429741 -10.11019904 7.95508409 -9 4 C-6.40210422 1.76021015 -3.51807835 0 0 0 Z " fill="#599F87" transform="translate(142,356)"/>
    <path d="M0 0 C0.43183594 0.57621094 0.86367188 1.15242188 1.30859375 1.74609375 C2.38242914 3.17704761 3.45777404 4.60687092 4.53515625 6.03515625 C5.03917969 6.70417969 5.54320312 7.37320312 6.0625 8.0625 C6.56910156 8.73410156 7.07570313 9.40570313 7.59765625 10.09765625 C8.77792898 11.69875045 9.896642 13.344963 11 15 C8.525 14.01 8.525 14.01 6 13 C6 12.34 6 11.68 6 11 C5.38125 10.731875 4.7625 10.46375 4.125 10.1875 C2 9 2 9 0 6 C-0.125 2.8125 -0.125 2.8125 0 0 Z " fill="#AB2D48" transform="translate(284,368)"/>
    <path d="M0 0 C2.01822917 0.06510417 4.03645833 0.13020833 6.0546875 0.1953125 C2.2611004 3.41411367 -1.60360727 5.8116312 -5.9453125 8.1953125 C-3.55986581 0.35741625 -3.55986581 0.35741625 0 0 Z " fill="#68B19C" transform="translate(162.9453125,351.8046875)"/>
    <path d="M0 0 C-2.09950586 0.86555948 -4.2047907 1.71711277 -6.3125 2.5625 C-8.07013672 3.27599609 -8.07013672 3.27599609 -9.86328125 4.00390625 C-13 5 -13 5 -16 4 C-16 3.34 -16 2.68 -16 2 C-13.89829344 1.46932659 -11.79352402 0.95077143 -9.6875 0.4375 C-7.92986328 0.00244141 -7.92986328 0.00244141 -6.13671875 -0.44140625 C-3 -1 -3 -1 0 0 Z " fill="#90CBBA" transform="translate(165,390)"/>
    <path d="M0 0 C2.8290723 2.8290723 3.37611108 3.38144425 4 7 C1.36 7.33 -1.28 7.66 -4 8 C-2.68 5.36 -1.36 2.72 0 0 Z " fill="#B5D7C3" transform="translate(126,391)"/>
    <path d="M0 0 C1.50433594 0.29197266 1.50433594 0.29197266 3.0390625 0.58984375 C4.19535156 0.82380859 4.19535156 0.82380859 5.375 1.0625 C5.375 1.3925 5.375 1.7225 5.375 2.0625 C1.085 2.0625 -3.205 2.0625 -7.625 2.0625 C-7.625 1.4025 -7.625 0.7425 -7.625 0.0625 C-4.81015955 -1.34492022 -3.05563887 -0.60402164 0 0 Z " fill="#648E7F" transform="translate(157.625,394.9375)"/>
    <path d="M0 0 C0.66 0.33 1.32 0.66 2 1 C-0.475 4.465 -0.475 4.465 -3 8 C-4 5 -4 5 -3.1875 2.875 C-2 1 -2 1 0 0 Z " fill="#74B39A" transform="translate(136,362)"/>
</svg>
