<?xml version="1.0" standalone="no"?>
<!DOCTYPE svg PUBLIC "-//W3C//DTD SVG 20010904//EN"
        "http://www.w3.org/TR/2001/REC-SVG-20010904/DTD/svg10.dtd">
<svg version="1.0" xmlns="http://www.w3.org/2000/svg"
     width="50.000000pt" height="50.000000pt" viewBox="0 0 50.000000 50.000000"
     preserveAspectRatio="xMidYMid meet">

    <g transform="translate(0.000000,50.000000) scale(0.100000,-0.100000)"
       fill="#49a09d" stroke="none">
        <path d="M60 480 c-14 -25 -12 -436 2 -462 8 -16 27 -18 188 -18 l180 0 -6 28
c-4 19 -1 32 10 41 14 11 16 43 16 210 0 140 -3 200 -12 209 -8 8 -65 12 -190
12 -168 0 -178 -1 -188 -20z m40 -175 c0 -117 4 -185 10 -185 6 0 10 68 10
185 l0 186 153 -3 152 -3 0 -204 0 -203 -150 1 c-82 1 -154 6 -159 11 -5 5
-15 2 -25 -7 -15 -15 -16 -1 -19 182 -2 202 -1 225 18 225 6 0 10 -65 10 -185z
m304 -255 c-5 -5 -79 -11 -164 -13 l-155 -3 163 -2 c102 -1 162 -6 162 -12 0
-7 -58 -10 -168 -8 -165 3 -167 3 -170 26 l-3 22 172 0 c112 0 170 -3 163 -10z"/>
        <path d="M139 468 c-7 -11 -4 -108 2 -108 5 0 9 10 9 23 0 29 39 67 68 67 12
0 22 5 22 10 0 8 -97 15 -101 8z m23 -30 c-7 -7 -12 -8 -12 -2 0 14 12 26 19
19 2 -3 -1 -11 -7 -17z"/>
        <path d="M310 460 c0 -5 8 -10 18 -10 29 0 61 -29 71 -63 8 -29 9 -27 10 26
l1 57 -50 0 c-27 0 -50 -4 -50 -10z m89 -26 c3 -16 1 -17 -13 -5 -19 16 -21
34 -3 29 6 -3 14 -13 16 -24z"/>
        <path d="M200 280 l0 -91 73 3 72 3 0 84 c0 66 -3 85 -15 88 -12 4 -12 2 -2
-5 9 -6 12 -31 10 -83 l-3 -74 -62 -3 -63 -3 0 80 0 80 43 4 42 4 -47 1 -48 2
0 -90z"/>
        <path d="M246 314 c-22 -22 -20 -50 6 -68 19 -13 25 -14 43 -2 27 18 31 43 9
67 -21 23 -37 24 -58 3z m58 -20 c8 -21 -11 -44 -35 -44 -19 0 -35 33 -24 50
10 16 52 12 59 -6z"/>
        <path d="M135 153 c1 -27 3 -51 4 -54 2 -10 101 -7 101 3 0 8 -30 12 -68 9
-18 -1 -22 3 -21 21 4 39 -1 68 -10 68 -5 0 -7 -21 -6 -47z"/>
        <path d="M401 182 c-1 -29 -44 -72 -71 -72 -11 0 -20 -4 -20 -8 0 -4 21 -7 48
-7 44 0 47 2 50 27 2 16 1 40 -1 56 -3 22 -4 23 -6 4z m-1 -57 c0 -8 -7 -15
-16 -15 -14 0 -14 3 -4 15 7 8 14 15 16 15 2 0 4 -7 4 -15z"/>
        <path d="M160 130 c0 -5 5 -10 11 -10 5 0 7 5 4 10 -3 6 -8 10 -11 10 -2 0 -4
-4 -4 -10z"/>
    </g>
</svg>